<?xml version="1.0" encoding="utf-8"?>
<!-- Generator: Adobe Illustrator 21.0.0, SVG Export Plug-In . SVG Version: 6.00 Build 0)  -->
<svg version="1.1" id="Layer_1" xmlns="http://www.w3.org/2000/svg" xmlns:xlink="http://www.w3.org/1999/xlink" x="0px" y="0px"
	 viewBox="0 0 400 379" style="enable-background:new 0 0 400 379;" xml:space="preserve">
<style type="text/css">
	.st0{fill:#E5F3F9;}
	.st1{fill:#BEE1F4;}
	.st2{opacity:0.4;}
	.st3{fill:#FFFFFF;}
	.st4{fill:#B8DFF8;}
	.st5{opacity:0.2;fill:#FFFFFF;enable-background:new    ;}
	.st6{fill:#9ADB82;}
	.st7{fill:#64BB46;}
	.st8{fill:#BBCEE1;}
	.st9{fill:#4B9B2D;}
	.st10{fill:#06325B;}
	.st11{fill:#1C75BC;}
	.st12{fill:#2A80C7;}
	.st13{fill:#2EB2E7;}
	.st14{fill:#0669BF;}
	.st15{fill:#2A87C6;}
	.st16{fill:#0F4463;}
	.st17{fill:#0B3B56;}
	.st18{fill:#1F5E77;}
	.st19{fill:#07304B;}
	.st20{fill:url(#SVGID_1_);}
	.st21{fill:#FED4BD;}
	.st22{fill:#F4C5A2;}
	.st23{fill:#8FBEE7;}
	.st24{fill:#0569BD;}
	.st25{fill:#1371C0;}
	.st26{fill:#4190D7;}
	.st27{fill:#EDF0F8;}
</style>
<title>banner</title>
<g id="Layer_2">
	<g id="Layer_1-2">
		<path class="st0" d="M283.4,156.7c2.9,2.8,6.9,4.2,10.9,4.1c4.7-0.3,9.1-2.1,12.6-5.2l0.3-0.3c-0.9,0-1.7-0.1-2.6-0.2
			c-3.9-0.3-8-0.8-11.4-2.6c6,1,12.2,0.4,18-1.5c2.1-2.7,3.8-5.7,4.9-8.9c-0.7,0.4-1.5,0.8-2.3,1.2c-5.1,2.4-11,2.4-16.7,1.6
			c7.2-1.7,14-4.5,20.4-8.3c0.5-2.6,0.6-5.3,0.4-8c-0.7,0.7-1.4,1.5-2,2.3c-1.1,1.6-2,3.4-3.6,4.6c-2.1,1.7-4.9,1.9-7.5,2
			c-1.3,0-2.7,0-4.1,0c1.6-0.6,3.2-1.2,4.8-1.8c1.4-0.6,2.8-1.2,4.1-2c3.2-2.1,5.9-4.9,7.9-8.1c-0.3-1.7-0.7-3.3-1.3-4.9
			c-3.5,3.3-7.6,5.9-12,7.8c4-3,7.7-6.5,10.9-10.3c-0.7-1.4-1.4-2.7-2.3-4c-3,3.6-6.8,6.5-11.1,8.3c3.7-3.1,6.7-6.8,9-11
			c-0.7-0.9-1.5-1.7-2.4-2.5c-0.7,0.9-1.5,1.7-2.4,2.4c-0.8,0.6-1.6,1.2-2.4,1.6c1.3-1.7,2.3-3.5,3.2-5.5c-1.1-1-2.3-1.9-3.5-2.8
			L283.4,156.7z"/>
		<path class="st0" d="M283.4,156.7c-2.6,0.4-5.3,0.2-7.7-0.8c-2.2-1-4.1-2.4-5.8-4.1c-3.1-3.5-4.4-8.2-4.8-12.9
			c1.6,1.5,3.5,2.9,5.5,3.9c2.1,1,4.3,1.9,6.5,2.6c-2.1-2.3-4.3-4.5-6.7-6.6c-0.9-0.7-1.8-1.3-2.6-2c-1.1-1-2.1-2.1-2.8-3.4
			c0.2-3.7,1.1-7.3,2.5-10.7c0.6,1.7,1.3,3.3,2.1,4.8c0.8,1.8,1.9,3.5,3.2,4.9c1.1,1,2.3,1.9,3.7,2.5c-0.8-0.8-1.5-1.7-2.1-2.6
			c-2.8-4.1-3.5-9.2-4.2-14.2c1.1-1.5,2.4-2.8,3.8-4.1c0.6,6.2,3.5,12,8,16.3c-0.4-0.8-0.8-1.6-1.1-2.4c-1.2-2.5-2.2-5.1-3-7.7
			c-0.4-1.6-0.7-3.3-0.9-5c-0.1-0.8-0.2-1.7-0.2-2.5c0-0.3,0-0.7,0.1-1c1.5-1.1,3.1-2,4.8-2.8c-0.4,2.2-0.4,4.4,0,6.5
			c0.3,1.3,0.7,2.6,1.3,3.8c1.1,2.6,2.5,5,4.2,7.2c-2.9-6-3.5-12.8-1.6-19.2c1.2-0.4,2.5-0.8,3.8-1.1c-0.5,2.6-0.5,5.2,0.1,7.8
			c0.2-2.9,1-5.7,2.4-8.2c1.4-0.2,2.9-0.3,4.4-0.4c-0.3,1.6-0.3,3.3-0.1,4.9c0.3-1.8,1-3.4,1.9-5c1.8-0.1,3.7-0.2,5.6-0.4
			L283.4,156.7z"/>
		<path class="st1" d="M289.7,148.7c1,0.1,2.1,0.2,3.1,0.2c2.1,0.1,4.1,0.1,6.2,0.1s4.1-0.2,6.2-0.4s4.1-0.5,6.1-1
			c-2,0.4-4.1,0.7-6.1,0.9c-2.1,0.2-4.1,0.2-6.2,0.2s-4.1-0.1-6.2-0.3c-1-0.1-2-0.2-3.1-0.3l-2.3-0.3l2.2-6.1
			c1.4,0.1,2.7,0.2,4.1,0.1c1.5,0,3-0.2,4.5-0.4c3-0.4,6-1,8.9-1.9c-2.9,0.8-5.9,1.3-8.9,1.6c-1.5,0.1-3,0.2-4.5,0.2
			c-1.3,0-2.6-0.1-3.9-0.2l2.1-5.8c1.8,0,3.7-0.2,5.4-0.6c1.9-0.4,3.8-1,5.6-1.7c1.8-0.7,3.6-1.6,5.3-2.5c1.7-0.9,3.3-2,4.9-3.2
			c-1.6,1.2-3.2,2.2-4.9,3.1c-1.7,0.9-3.5,1.7-5.3,2.4s-3.7,1.2-5.6,1.6c-1.7,0.3-3.4,0.5-5.2,0.5l2.2-6.1c1.5-0.3,3.1-0.7,4.5-1.3
			c1.5-0.6,3-1.3,4.5-2.1c1.4-0.8,2.8-1.7,4.1-2.7c1.3-1,2.6-2,3.7-3.2c-1.2,1.1-2.5,2.2-3.8,3.1s-2.7,1.8-4.2,2.6
			c-1.4,0.8-2.9,1.5-4.5,2c-1.4,0.5-2.8,0.9-4.2,1.1l2.3-6.4c1.9-1,3.6-2.2,5.3-3.5c1.7-1.3,3.2-2.8,4.6-4.5c-1.4,1.6-3,3.1-4.7,4.4
			c-1.6,1.2-3.2,2.3-5,3.2l4.1-11.2l-5.9,14.7c-0.6-1.1-1.1-2.2-1.5-3.3c-0.3-0.6-0.4-1.3-0.6-2s-0.3-1.3-0.4-2
			c-0.2-1.4-0.3-2.7-0.3-4.1s0.1-2.8,0.3-4.1c-0.3,1.4-0.4,2.7-0.4,4.1s0.1,2.8,0.3,4.1c0.1,0.7,0.2,1.4,0.4,2s0.3,1.3,0.6,2
			c0.4,1.3,0.9,2.5,1.5,3.6l-2.4,5.8c-1.1-1.4-2-2.9-2.8-4.4c-0.9-1.7-1.6-3.5-2.1-5.4s-0.9-3.8-1-5.7c-0.2-1.9-0.1-3.9,0.1-5.8
			c-0.3,1.9-0.4,3.9-0.2,5.8c0.1,2,0.4,3.9,0.9,5.8s1.2,3.7,2,5.5c0.8,1.7,1.8,3.3,2.9,4.8l-2.1,5.3l-0.7-0.7l-0.6-0.6l-0.5-0.6
			l-1.1-1.3l-1-1.3c-1.3-1.8-2.4-3.7-3.4-5.6c-1-2-1.8-4-2.5-6.1s-1.2-4.2-1.6-6.4c0.3,2.2,0.8,4.3,1.4,6.4s1.4,4.2,2.4,6.2
			c0.9,2,2,4,3.3,5.8l1,1.4l1,1.3l0.5,0.6l0.6,0.6l0.9,0.9l-1.3,3.2c-1.5-0.9-3-2-4.3-3.1c-1.5-1.3-2.9-2.7-4.2-4.2
			c-1.3-1.5-2.5-3.1-3.6-4.8s-2.1-3.4-3-5.2c0.8,1.8,1.8,3.6,2.9,5.3c1.1,1.7,2.2,3.3,3.5,4.9c1.3,1.6,2.6,3,4.1,4.4
			c1.4,1.3,2.8,2.4,4.4,3.4l-1.5,3.7c-0.7-0.3-1.4-0.6-2.1-0.9c-0.9-0.4-1.7-0.8-2.6-1.3c-1.7-0.9-3.4-1.9-5-3s-3.2-2.2-4.7-3.5
			c-1.5-1.2-2.9-2.6-4.2-4c1.3,1.5,2.6,2.9,4.1,4.1c1.5,1.3,3,2.5,4.6,3.6s3.2,2.2,4.9,3.1c0.8,0.5,1.7,0.9,2.6,1.4
			c0.7,0.4,1.4,0.7,2.1,1l-3,7.5c-1.5-0.2-2.9-0.5-4.3-1c-1.6-0.6-3.1-1.4-4.5-2.4c-2.9-2-5.4-4.3-7.6-7c2.1,2.8,4.6,5.2,7.4,7.3
			c1.4,1,3,1.9,4.5,2.6c1.4,0.6,2.8,0.9,4.2,1.2l-5.3,13.3l1.9,0.7l4.9-13.4c1,0.5,2.1,1,3.2,1.4c1.3,0.5,2.7,0.8,4.1,1.1
			s2.8,0.4,4.2,0.5c1.4,0.1,2.8,0,4.2-0.1c-1.4,0.1-2.8,0.1-4.2,0c-1.4-0.1-2.8-0.3-4.2-0.6c-1.4-0.3-2.7-0.7-4-1.2
			c-1.1-0.4-2.1-0.9-3.1-1.5l1.9-5.2L289.7,148.7z"/>
		<path class="st0" d="M52.3,231.6c2.7-3,4.1-7,3.9-11c-0.3-4.7-2.2-9.1-5.4-12.5l-0.3-0.3c0,0.9-0.1,1.7-0.1,2.6
			c-0.3,3.9-0.6,8-2.4,11.4c0.9-6,0.2-12.2-1.8-17.9c-2.7-2.1-5.8-3.7-9-4.8c0.5,0.7,0.9,1.5,1.2,2.2c2.5,5.1,2.6,11,1.8,16.6
			c-1.9-7.1-4.8-14-8.6-20.3c-2.6-0.4-5.3-0.5-8-0.3c0.8,0.7,1.6,1.4,2.4,2c1.6,1.1,3.4,2,4.7,3.5c1.7,2,2,4.9,2.1,7.5
			c0.1,1.3,0.1,2.7,0.1,4.1c-0.6-1.6-1.2-3.2-1.9-4.7c-0.6-1.4-1.2-2.8-2-4.1c-2.2-3.1-5-5.8-8.2-7.8c-1.7,0.3-3.3,0.8-4.9,1.4
			c3.4,3.4,6.1,7.4,8,11.8c-3.1-4-6.6-7.6-10.5-10.7c-1.4,0.7-2.7,1.5-3.9,2.4c3.7,2.9,6.6,6.7,8.5,11c-3.2-3.6-7-6.6-11.3-8.9
			c-0.9,0.8-1.7,1.6-2.5,2.5c0.9,0.7,1.7,1.5,2.4,2.3c0.6,0.7,1.2,1.5,1.7,2.4c-1.7-1.2-3.6-2.3-5.5-3.1c-1,1.1-1.9,2.3-2.7,3.6
			L52.3,231.6z"/>
		<path class="st0" d="M52.3,231.6c0.5,2.6,0.2,5.3-0.7,7.7c-0.9,2.2-2.3,4.2-4.1,5.8c-3.4,3.2-8.2,4.5-12.8,5
			c1.5-1.7,2.8-3.6,3.8-5.6c1-2.1,1.8-4.3,2.5-6.6c-2.3,2.1-4.5,4.4-6.5,6.8c-0.7,0.9-1.3,1.8-2,2.6c-1,1.1-2.1,2.1-3.4,2.9
			c-3.7-0.1-7.3-0.9-10.7-2.3c1.7-0.6,3.3-1.3,4.8-2.2c1.8-0.8,3.4-2,4.8-3.3c1-1.1,1.8-2.4,2.4-3.7c-0.8,0.8-1.7,1.5-2.6,2.1
			c-4.1,2.8-9.2,3.7-14.1,4.4c-1.5-1.1-2.9-2.3-4.1-3.7c3.2-0.4,6.3-1.3,9.2-2.9c2.6-1.4,5-3.2,7-5.4c-0.8,0.4-1.6,0.8-2.4,1.2
			c-2.5,1.2-5,2.3-7.7,3.1c-1.6,0.4-3.3,0.8-5,1c-0.8,0.1-1.7,0.2-2.5,0.3c-0.3,0-0.7,0-1,0c-1.1-1.5-2.1-3.1-2.9-4.7
			c2.2,0.4,4.4,0.3,6.5-0.1c1.3-0.3,2.6-0.8,3.8-1.4c2.5-1.1,4.9-2.5,7.1-4.3c-5.9,3-12.8,3.8-19.2,2c-0.5-1.2-0.8-2.5-1.1-3.8
			c2.6,0.4,5.2,0.4,7.8-0.2c-2.9-0.1-5.7-0.9-8.3-2.2c-0.2-1.4-0.4-2.9-0.5-4.4c1.6,0.3,3.3,0.3,4.9,0.1c-1.8-0.3-3.5-0.9-5.1-1.8
			c-0.1-1.8-0.3-3.7-0.5-5.6L52.3,231.6z"/>
		<path class="st1" d="M44.1,225.4c0-1,0.1-2.1,0.2-3.1c0.1-2.1,0.1-4.1,0-6.2s-0.2-4.1-0.5-6.2c-0.2-2.1-0.6-4.1-1.1-6.1
			c0.5,2,0.8,4.1,1,6.1c0.2,2.1,0.3,4.1,0.3,6.2s0,4.1-0.2,6.2c0,1-0.2,2.1-0.2,3.1l-0.3,2.3l-6.1-2.1c0.1-1.4,0.1-2.7,0-4.1
			c-0.1-1.5-0.2-3-0.4-4.5c-0.4-3-1.1-5.9-2-8.8c0.8,2.9,1.4,5.9,1.7,8.9c0.2,1.5,0.3,3,0.3,4.5c0,1.3,0,2.6-0.2,3.9l-5.8-2
			c0-1.8-0.3-3.6-0.7-5.4c-0.4-1.9-1-3.8-1.8-5.6c-0.7-1.8-1.6-3.5-2.6-5.2s-2.1-3.3-3.3-4.8c1.2,1.5,2.2,3.2,3.2,4.9
			c0.9,1.7,1.7,3.4,2.4,5.2c0.7,1.8,1.3,3.7,1.7,5.6c0.3,1.7,0.5,3.4,0.5,5.2l-6.2-2.2c-0.3-1.5-0.8-3-1.4-4.5s-1.3-3-2.2-4.4
			c-0.8-1.4-1.7-2.8-2.7-4.1s-2.1-2.5-3.3-3.7c1.1,1.2,2.2,2.4,3.2,3.7s1.8,2.7,2.6,4.1c0.8,1.4,1.5,2.9,2,4.4
			c0.5,1.4,0.9,2.8,1.2,4.2l-6.4-2.2c-1-1.9-2.2-3.6-3.6-5.2c-1.3-1.7-2.9-3.2-4.5-4.5c1.6,1.4,3.1,3,4.4,4.7c1.2,1.6,2.3,3.2,3.3,5
			l-11.2-3.9l14.8,5.6c-1.1,0.6-2.2,1.1-3.3,1.5c-0.6,0.3-1.3,0.4-2,0.6s-1.3,0.3-2,0.4c-1.4,0.2-2.7,0.4-4.1,0.4S6,223.2,4.7,223
			c1.4,0.2,2.7,0.4,4.1,0.4s2.8-0.1,4.2-0.3c0.7-0.1,1.4-0.3,2-0.4s1.3-0.4,2-0.6c1.2-0.4,2.4-1,3.6-1.6l5.9,2.2
			c-1.4,1.1-2.8,2-4.4,2.9c-1.7,0.9-3.5,1.7-5.4,2.2c-1.9,0.6-3.8,0.9-5.7,1.1c-1.9,0.2-3.9,0.2-5.8,0c1.9,0.3,3.9,0.3,5.8,0.1
			c2-0.1,3.9-0.5,5.8-1s3.7-1.2,5.5-2.1c1.7-0.9,3.2-1.9,4.7-3l5.3,2l-0.7,0.7l-0.6,0.6l-0.6,0.5l-1.2,1.1l-1.3,1
			c-1.8,1.3-3.6,2.5-5.6,3.5s-4,1.9-6,2.6c-2.1,0.7-4.2,1.3-6.4,1.7c2.2-0.3,4.3-0.8,6.5-1.5c2.1-0.7,4.2-1.5,6.1-2.4
			c2-1,3.9-2.1,5.7-3.4l1.4-1l1.3-1.1l0.6-0.5l0.6-0.6l0.9-0.9l3.2,1.2c-0.9,1.5-1.9,3-3.1,4.4c-1.3,1.5-2.7,3-4.2,4.3
			s-3.1,2.6-4.7,3.7c-1.6,1.1-3.4,2.2-5.2,3.1c1.8-0.9,3.6-1.8,5.3-2.9c1.7-1.1,3.3-2.3,4.8-3.6s3-2.7,4.3-4.3
			c1.2-1.4,2.3-2.9,3.3-4.5l3.7,1.5c-0.3,0.7-0.6,1.4-0.9,2.1c-0.4,0.9-0.8,1.8-1.3,2.6c-0.9,1.7-1.8,3.4-2.9,5
			c-1,1.6-2.2,3.2-3.4,4.7c-1.2,1.5-2.5,3-3.9,4.3c1.5-1.3,2.8-2.7,4-4.2c1.3-1.5,2.4-3,3.5-4.6s2.1-3.3,3-5
			c0.5-0.8,0.9-1.7,1.3-2.6c0.3-0.7,0.7-1.4,1-2.1l7.6,2.9c-0.1,1.5-0.4,2.9-0.9,4.3c-0.6,1.6-1.4,3.1-2.3,4.6
			c-1.9,2.9-4.2,5.5-6.8,7.7c2.7-2.2,5.1-4.7,7.1-7.5c1-1.4,1.8-3,2.5-4.6c0.5-1.4,0.9-2.8,1.1-4.3l13.3,5.1l0.7-1.9l-13.5-4.7
			c0.5-1,0.9-2.1,1.3-3.2c0.4-1.3,0.8-2.7,1-4.1c0.2-1.4,0.4-2.8,0.4-4.2c0.1-1.4,0-2.8-0.2-4.2c0.1,1.4,0.1,2.8,0,4.2
			s-0.3,2.8-0.6,4.2s-0.7,2.7-1.2,4c-0.4,1.1-0.9,2.1-1.4,3.2l-5.2-1.8L44.1,225.4z"/>
		<path id="_Path_" class="st0" d="M222.9,305.8c-42.1,24.3-110.7,24.2-153.1-0.3s-42.6-64.1-0.5-88.4s110.7-24.2,153.1,0.3
			S265,281.4,222.9,305.8z"/>
		<path id="_Path_2" class="st0" d="M332.7,262.3c-42.1,24.3-110.7,24.2-153.1-0.3s-42.6-64.1-0.5-88.4s110.7-24.2,153.1,0.3
			S374.8,238,332.7,262.3z"/>
		<path class="st0" d="M155.1,66L155.1,66c-1.2-0.6-2.5-1.1-3.8-1.5l-0.2-0.1l-1.1-0.3l-0.4-0.1l-0.9-0.2l-0.4-0.1l-0.9-0.1
			l-0.4-0.1l-0.9-0.1h-0.4c-0.4,0-0.9,0-1.4,0l0,0c-6.1,0-12,2.3-16.5,6.4c-0.9,0.8-1.7,1.6-2.4,2.6c-0.2,0.3-0.5,0.6-0.7,0.9
			c-0.5,0.6-0.9,1.3-1.3,2c-0.2,0.3-0.4,0.7-0.6,1c-0.3,0.5-0.5,0.9-0.7,1.4s-0.4,1-0.7,1.6c-1.1,2.8-1.6,5.7-1.6,8.6
			c0,0.4,0,0.8,0,1.2c0,0.1,0,0.2,0,0.4s0,0.5,0.1,0.8s0,0.3,0,0.4s0.1,0.5,0.1,0.7s0,0.3,0.1,0.4c0,0.3,0.1,0.6,0.2,0.9l0.1,0.3
			c0.1,0.3,0.1,0.6,0.2,0.9l0.1,0.4c0.1,0.2,0.1,0.4,0.2,0.6l0.2,0.5l0.2,0.5l0.2,0.5l0.2,0.5c0.1,0.3,0.3,0.7,0.4,1l0.2,0.4
			l0.3,0.6l0.2,0.4l0.3,0.6l0.2,0.3l0.3,0.6l0.2,0.2c0.3,0.5,0.6,0.9,0.9,1.4l0,0c8.1,10.8,23.5,13,34.3,4.9s13-23.5,4.9-34.3
			C161.4,70.2,158.5,67.7,155.1,66z"/>
		<path class="st0" d="M82.6,58L82.6,58c-1.7-0.8-3.4-1.5-5.2-2l-0.3-0.1c-0.5-0.1-0.9-0.3-1.4-0.4l-0.5-0.1L74,55.2l-0.6-0.1
			l-1.2-0.2l-0.6-0.1l-1.3-0.1h-0.6c-0.6,0-1.2,0-1.9,0c-18.4,0-33.4,14.9-33.4,33.4c0,0.5,0,1.1,0,1.6c0,0.2,0,0.3,0,0.5
			c0,0.4,0,0.7,0.1,1.1c0,0.2,0,0.4,0.1,0.6c0,0.3,0.1,0.7,0.1,1c0,0.2,0,0.4,0.1,0.5c0.1,0.4,0.1,0.8,0.2,1.2l0.1,0.4
			c0.1,0.4,0.2,0.9,0.3,1.3c0,0.2,0.1,0.4,0.2,0.6s0.2,0.6,0.2,0.8l0.2,0.7c0.1,0.3,0.2,0.5,0.3,0.7s0.2,0.5,0.3,0.7
			s0.2,0.5,0.3,0.7c0.2,0.4,0.4,0.9,0.6,1.3l0.3,0.5c0.1,0.3,0.3,0.5,0.4,0.8l0.3,0.5l0.4,0.8l0.3,0.4c0.2,0.3,0.3,0.5,0.5,0.8
			l0.2,0.3C49.8,121.4,70.5,126,86,116s20.1-30.6,10.1-46.1C92.6,64.8,88,60.7,82.6,58z"/>
		<path class="st0" d="M122.8,1.8l-0.4-0.1c-0.6-0.2-1.2-0.3-1.8-0.5L120,1.1c-0.5-0.1-1.1-0.2-1.6-0.3l-0.8-0.1
			c-0.5-0.1-1-0.2-1.6-0.2l-0.8-0.1c-0.6-0.1-1.1-0.1-1.7-0.2h-0.7C112.1,0,111.3,0,110.5,0l0,0c-7.8,0-15.4,2.1-22.1,6.2
			c-0.6,0.4-1.2,0.7-1.7,1.1c-11.8,7.9-18.8,21.2-18.8,35.4c0,0.7,0,1.3,0.1,2c0,0.2,0,0.4,0,0.6c0,0.5,0.1,0.9,0.1,1.4
			c0,0.2,0,0.5,0.1,0.7c0,0.4,0.1,0.9,0.2,1.3c0,0.2,0.1,0.5,0.1,0.7c0.1,0.5,0.2,1,0.3,1.6l0.1,0.5c0.1,0.6,0.2,1.1,0.4,1.7
			c0.1,0.3,0.1,0.5,0.2,0.8s0.2,0.7,0.3,1s0.2,0.6,0.3,0.9s0.2,0.6,0.3,0.9s0.2,0.6,0.3,0.9s0.2,0.6,0.3,0.9
			c0.2,0.6,0.5,1.1,0.7,1.7c0.1,0.2,0.2,0.5,0.3,0.7s0.3,0.7,0.5,1l0.3,0.6c0.2,0.3,0.4,0.7,0.5,1l0.3,0.6c0.2,0.3,0.4,0.7,0.6,1
			l0.3,0.4c12.6,19.9,39,25.7,58.8,13.1s25.7-39,13.1-58.8C140.9,11.1,132.6,4.8,122.8,1.8z"/>
		<polygon class="st1" points="144.3,90.3 112.3,107.6 110.5,54.9 108.3,118.1 69.6,88 108.1,123.6 106.5,200.7 114.5,200.7 
			112.5,112.6 		"/>
		<path id="_Path_3" class="st0" d="M316,334.5c-42.1,24.3-110.7,24.2-153.1-0.3s-42.6-64.1-0.5-88.4s110.7-24.2,153.1,0.3
			S358.2,310.2,316,334.5z"/>
		<path id="_Path_4" class="st0" d="M359.6,330.6c-24.1,13.9-63.2,13.8-87.4-0.2s-24.3-36.6-0.3-50.5s63.2-13.8,87.4,0.2
			S383.7,316.7,359.6,330.6z"/>
		<path class="st0" d="M367,266c-1.1,1.8-2.1,3.5-3.3,5.2c-0.3,0.5-0.8,0.8-0.8,1.3c0,0.6,1,1.5,1.4,2c0.6,0.9,1.3,1.8,2.1,2.5
			c-0.9-0.5-2.8-1.8-4-1.8c0.2,0.9,0.5,1.7,0.9,2.5c-0.7-0.6-1.5-1-2.4-1.1c0,0.9-0.2,1.8-0.5,2.6c-0.8,4-1.4,8.8,0.4,12.5
			c1.9,4.1,7.4,3.5,11.1,2.6c1.9-0.4,3.7-1.2,5.3-2.3c0.6-0.4,2.5-2.4,3.3-1.8c-0.3-0.8-0.5-1.6-0.6-2.4c0.5,0.4,1.3,0.3,1.7,0.8
			c0.9-0.7,1.4-1.8,2.5-2.3c-0.8-0.9-1-2.3-1.8-3.3c1.1,0.1,2.1,0.4,3.1,0.8c0.3-0.6,0.7-1.3,1.2-1.8c1.8-2.5,3.3-5.1,4.6-7.8
			c0.8-1.6,1.8-3.2,2.8-4.7c-0.8-0.8-1.5-1.6-2.2-2.5c-0.9-1-1.9-2-2.8-3c0.5,0,1,0.2,1.5,0.4c1.7,0.5,3.5,0.9,5.2,1.3
			c0.1-0.7,3.3-6.8,3-7c-1.1-0.6-2.2-1.3-3.3-2.1c1.1,0.1,2.3,0.1,3.4,0c-0.5-1.2-2.9-2.4-3.9-3.3c0.9-0.3,1.8,0.2,2.7,0.3
			c0.6,0.1,1.3-0.1,1.8,0.2c0.2-1.8,0.3-3.7,0.3-5.5c0-1.2,0.5-3.3,0-4.3c-0.3-0.8-1.6-1.2-1.9-1.9c0.5-0.2,1-0.2,1.6-0.1
			c0-0.4-0.3-6.5-0.7-6.4c-3.7,0.5-7.1,1.2-10.4,3c-0.6,0.4-1.4,0.6-1.5,1.2c-0.4,1.2,0.6,3,0.7,4.2c-1.2-1.1-2.5-2.1-3.8-2.9
			c-1.4,1.1-2.6,2.4-3.6,3.8c-0.9,1.3-2,2.6-2.8,3.9c-0.4,0.6-0.8,1.2-1.1,1.9c-0.3,1.4,2.5,4.4,3.5,5.5c-1.5-0.1-3-1.5-4.6-1.8
			s-1.7,1.6-2.7,2.2c0.7,0.1,1.5,1.2,1.8,1.7c-0.8,0-1.5-0.6-2.2-0.3c0.6,1.4,1.4,2.8,2.3,4c-0.9,0-1.8-0.7-2.8-0.9
			c-0.5-0.1-0.9-0.1-1.4-0.2c-0.8,1.7-1.8,3.4-2.9,4.9L367,266z"/>
		<path class="st1" d="M396,240.1c-2.1,1.9-3.2,5.5-4.4,8c-1.3,2.8-2.5,5.6-3.7,8.3c-2.3,5.2-5,10.1-8.1,14.8
			c-6.5,9.5-12.5,19.8-20.5,28.2c-0.5,0.6-1.6-0.3-1.1-0.9c7.4-9.3,14.7-18.6,21.4-28.4c3.3-5.1,6.2-10.4,8.6-16
			c2.3-4.9,4.4-10.1,7.3-14.7C395.8,239.1,396.5,239.6,396,240.1L396,240.1z"/>
		<path id="_Path_5" class="st0" d="M196,368.6c-24.1,13.9-63.2,13.8-87.4-0.2s-24.3-36.6-0.3-50.5s63.2-13.8,87.4,0.2
			S220,354.7,196,368.6z"/>
		<path id="_Path_6" class="st0" d="M321.9,360.4c-5.3,3.1-14,3-19.3,0s-5.4-8.1-0.1-11.1s14-3,19.3,0S327.2,357.4,321.9,360.4z"/>
		<path id="_Path_7" class="st0" d="M374.4,247.1c-2.7,1.4-5.8,1.4-8.5,0c-2.4-1.4-2.4-3.5,0-4.9c2.7-1.4,5.8-1.4,8.5,0
			C376.7,243.6,376.7,245.8,374.4,247.1z"/>
		<path class="st0" d="M76.1,306.7c2,0.1,4.1,0.2,6.2,0.2c0.6,0,1.1-0.2,1.5,0.1s0.7,1.7,0.9,2.3c0.5,1,0.8,2.1,0.9,3.1
			c0.1-1,0.1-3.3,0.8-4.3c0.6,0.7,1.1,1.4,1.6,2.2c-0.1-0.9,0-1.8,0.4-2.6c0.7,0.5,1.6,0.9,2.4,1.1c3.8,1.5,8,3.8,10.1,7.4
			c2.3,3.9-1.3,8.1-4.2,10.6c-1.4,1.3-3.1,2.4-4.9,3.1c-0.7,0.2-3.4,0.7-3.4,1.7c-0.5-0.7-1-1.3-1.6-1.9c0,0.6-0.5,1.2-0.3,1.8
			c-1,0.4-2.3,0.2-3.3,0.7c-0.3-1.1-1.3-2.2-1.7-3.3c-0.5,0.9-0.9,2-1.1,3c-0.7-0.1-1.4-0.1-2.2,0c-3,0.1-6.1-0.1-9.1-0.6
			c-1.8-0.2-3.6-0.3-5.5-0.4c-0.2-1.1-0.5-2.2-0.8-3.2c-0.3-1.3-0.5-2.7-0.8-4c-0.3,0.5-0.4,1-0.5,1.5c-0.6,1.7-1.2,3.4-1.9,5.1
			c-0.6-0.3-7.5-1.1-7.5-1.5c0.2-1.3,0.2-2.6,0.1-3.9c-0.5,1-1.2,2-1.9,2.8c-0.7-1.1-0.3-3.8-0.6-5.1c-0.7,0.6-0.9,1.6-1.3,2.3
			c-0.3,0.5-0.8,1-0.8,1.6c-1.6-0.8-3.2-1.8-4.7-2.8c-1-0.6-2.9-1.5-3.6-2.5c-0.4-0.7-0.1-2-0.5-2.6c-0.4,0.3-0.8,0.7-1,1.2
			c-0.3-0.3-5.2-3.9-4.9-4.2c2.5-2.8,5-5.3,8.4-6.9c0.6-0.3,1.2-0.8,1.8-0.6c1.2,0.4,2.2,2.2,3.1,3c-0.2-1.6-0.3-3.2-0.3-4.8
			c1.7-0.5,3.4-0.8,5.2-0.9c1.6,0,3.2-0.2,4.8-0.1c0.7,0,1.5,0,2.2,0.1c1.3,0.5,2.2,4.6,2.5,6c0.7-1.3,0.4-3.3,1.1-4.8
			s2.3-0.5,3.3-1c-0.3,0.6,0.2,1.9,0.4,2.5c0.4-0.6,0.4-1.6,1-2c0.8,1.3,1.5,2.7,1.9,4.2c0.5-0.8,0.4-1.9,0.8-2.8
			c0.2-0.4,0.4-0.8,0.6-1.2c1.9,0.3,3.8,0.4,5.7,0.4L76.1,306.7z"/>
		<path class="st1" d="M38.3,316c2.8-0.6,6.3,0.5,9.1,0.9c3,0.5,6,1.1,9,1.6c5.6,1,11.2,1.6,16.8,1.7c11.5,0,23.4,0.8,34.8-1
			c0.8-0.1,0.7-1.5-0.1-1.4c-11.8,0.9-23.6,1.6-35.5,1.7c-6-0.1-12.1-0.8-18-1.9c-5.3-0.9-10.8-2-16.2-2.3
			C37.7,315.3,37.8,316.1,38.3,316L38.3,316z"/>
		<g class="st2">
			<polygon class="st3" points="191,96.7 191,98.1 197,101.6 197,100.1 			"/>
			<polygon class="st3" points="191,99.3 191,100.7 197,104.2 197,102.8 			"/>
			<polygon class="st3" points="191,101.9 191,103.3 197,106.8 197,105.4 			"/>
			<polygon class="st4" points="236.5,132.2 236.5,130.8 199.3,109.3 199.3,110.7 			"/>
			<polygon class="st3" points="191,104.5 191,106 197,109.4 197,108 			"/>
			<polygon class="st3" points="191,107.1 191,108.6 197,112.1 197,110.6 			"/>
			<polygon class="st4" points="236.5,134.9 236.5,133.4 199.3,111.9 199.3,113.4 			"/>
			<polygon class="st3" points="191,115 191,116.4 197,119.9 197,118.5 			"/>
			<polygon class="st3" points="191,117.6 191,119.1 197,122.6 197,121.1 			"/>
			<polygon class="st4" points="191,128.1 191,129.6 197,133.1 197,131.6 			"/>
			<polygon class="st4" points="191,130.8 191,132.2 197,135.7 197,134.3 			"/>
			<polygon class="st4" points="222.8,149.1 199.3,135.6 199.3,137 222.8,150.5 			"/>
			<polygon class="st3" points="224,149.8 224,151.3 236.5,158.5 236.5,157 			"/>
			<polygon class="st4" points="211.1,139.7 199.3,132.9 199.3,134.4 211.1,141.2 			"/>
			<polygon class="st3" points="212.3,140.4 212.3,141.9 236.5,155.9 236.5,154.4 			"/>
			<polygon class="st3" points="233.3,144.7 233.3,146.1 236.5,148 236.5,146.5 			"/>
			<polygon class="st4" points="216,132.1 199.3,122.4 199.3,123.9 216,133.5 			"/>
			<polygon class="st3" points="209.1,107.1 199.3,101.4 199.3,102.9 209.1,108.6 			"/>
			<polygon class="st4" points="225.3,116.5 210.4,107.8 210.4,109.3 225.3,117.9 			"/>
			<polygon class="st4" points="216.6,114.1 206.1,108 206.1,109.4 216.6,115.5 			"/>
			<polygon class="st4" points="227.7,120.4 217.9,114.8 217.9,116.2 227.7,121.9 			"/>
			<polygon class="st3" points="228.9,121.2 228.9,122.6 236.5,127 236.5,125.5 			"/>
			<polygon class="st3" points="201.2,107.8 201.2,109.2 209.1,113.8 209.1,112.4 			"/>
			<polygon class="st4" points="233.4,126.4 210.4,113.1 210.4,114.5 233.4,127.8 			"/>
			<polygon class="st4" points="220.2,126.7 205.2,118 205.2,119.4 220.2,128.1 			"/>
			<polygon class="st3" points="233.4,134.3 221.5,127.4 221.5,128.8 233.4,135.7 			"/>
			<polygon class="st4" points="232.1,141.4 217.2,132.8 217.2,134.2 232.1,142.8 			"/>
			<polygon class="st3" points="224,139.3 224,140.8 232.1,145.4 232.1,144 			"/>
			<polygon class="st4" points="202.2,126.7 199.3,125.1 199.3,126.5 202.2,128.2 			"/>
			<polygon class="st4" points="207.6,129.9 207.6,131.3 222.8,140.1 222.8,138.6 			"/>
			<polygon class="st4" points="206.4,129.2 203.4,127.4 203.4,128.9 206.4,130.6 			"/>
			<polygon class="st4" points="220,139.6 203.4,130.1 203.4,131.5 220,141.1 			"/>
		</g>
		<g class="st2">
			<polygon class="st4" points="223.1,72.9 198.1,58.4 198.1,59.7 223.1,74.2 			"/>
			<polygon class="st4" points="198.1,62.2 236.5,84.4 236.5,83.1 198.1,60.9 			"/>
			<polygon class="st3" points="224.8,73.8 224.8,75.1 236.5,81.9 236.5,80.6 			"/>
			<polygon class="st4" points="223.1,77.8 198.1,63.3 198.1,64.5 223.1,79 			"/>
			<polygon class="st4" points="198.1,67 236.5,89.2 236.5,88 198.1,65.8 			"/>
			<polygon class="st3" points="224.8,80 236.5,86.7 236.5,85.5 224.8,78.7 			"/>
			<polygon class="st4" points="223.1,85.8 198.1,71.3 198.1,72.6 223.1,87.1 			"/>
			<polygon class="st4" points="198.1,75.1 236.5,97.3 236.5,96 198.1,73.8 			"/>
			<polygon class="st3" points="224.8,88 236.5,94.8 236.5,93.5 224.8,86.8 			"/>
			<polygon class="st4" points="223.1,90.7 198.1,76.2 198.1,77.5 223.1,92 			"/>
			<polygon class="st4" points="198.1,80 236.5,102.2 236.5,100.9 198.1,78.7 			"/>
			<polygon class="st3" points="224.8,92.9 236.5,99.7 236.5,98.4 224.8,91.6 			"/>
			<polygon class="st4" points="223.1,98.7 198.1,84.2 198.1,85.5 223.1,100 			"/>
			<polygon class="st4" points="198.1,88 236.5,110.2 236.5,108.9 198.1,86.7 			"/>
			<polygon class="st3" points="224.8,100.9 236.5,107.7 236.5,106.4 224.8,99.7 			"/>
			<polygon class="st4" points="223.1,103.6 198.1,89.1 198.1,90.4 223.1,104.9 			"/>
			<polygon class="st4" points="198.1,92.9 236.5,115.1 236.5,113.8 198.1,91.6 			"/>
			<polygon class="st3" points="224.8,105.8 236.5,112.6 236.5,111.3 224.8,104.6 			"/>
		</g>
		<path class="st5" d="M155.6,91.1l-18.7-10.8c-0.7-0.4-1.5-0.1-1.9,0.5c-0.1,0.2-0.2,0.4-0.2,0.7v22.4c0,1.1,0.6,2.1,1.5,2.6
			l18.7,10.8c0.7,0.4,1.5,0.2,1.9-0.5c0.1-0.2,0.2-0.5,0.2-0.7V93.8C157.2,92.7,156.6,91.7,155.6,91.1z"/>
		<path class="st6" d="M147.3,110l-24.5-14.1c-0.8-0.4-1.7-0.4-2.4,0.1l0,0l-5.4,3.1l2.5,3.4l0.9,1.1v24.3c0,1.4,0.8,2.8,2,3.5
			l18.3,10.6l0.2,1l3.7,5.3l5.8-3.4l0,0l0,0l0,0c0.5-0.3,0.9-0.9,0.9-1.6v-29.6C149.4,112.1,148.6,110.8,147.3,110z"/>
		<path class="st7" d="M141.6,113.4l-24.8-14.3c-0.9-0.5-2-0.2-2.5,0.7c-0.2,0.3-0.2,0.6-0.2,0.9v29.7c0,1.4,0.7,2.8,2,3.5
			l24.8,14.3c0.9,0.5,2,0.2,2.5-0.7c0.2-0.3,0.2-0.6,0.2-0.9V117C143.7,115.5,142.9,114.1,141.6,113.4z"/>
		<path class="st8" d="M142.7,148.2L142.7,148.2L142.7,148.2z"/>
		<path class="st9" d="M143.7,146.6V117c0-0.5-0.1-1-0.3-1.4l5.8-3.3c0.2,0.4,0.3,0.9,0.3,1.4v29.6c0,0.6-0.3,1.2-0.9,1.6l0,0l0,0
			l0,0l-5.7,3.4C143.4,147.8,143.7,147.2,143.7,146.6z"/>
		<path class="st3" d="M120,113.3l-3-1.7v10.8l2,1.2v-3.9l0.9,0.5c0.8,0.6,1.8,0.8,2.7,0.6c0.6-0.3,1-1,1-2.1s-0.3-2.1-0.9-3.1
			C122,114.7,121.1,113.8,120,113.3z M121,118.6c-0.5,0.1-1-0.1-1.4-0.4l-0.7-0.4v-3.2l0.9,0.5c0.5,0.3,0.9,0.6,1.2,1.1
			c0.3,0.4,0.4,0.9,0.4,1.4C121.4,118.2,121.3,118.5,121,118.6z"/>
		<polygon class="st3" points="130.4,123.6 126.7,121.4 126.7,117.2 124.7,116 124.7,126.9 126.7,128 126.7,123.4 130.4,125.5 
			130.4,130.2 132.4,131.4 132.5,120.5 130.5,119.3 		"/>
		<path class="st3" d="M139.9,125.7c-0.7-1-1.6-1.8-2.6-2.4l-3-1.7v10.8l2,1.2v-3.9l0.9,0.5c1.2,0.7,2.1,0.9,2.7,0.6
			c0.6-0.3,1-1,1-2.1C140.9,127.6,140.6,126.6,139.9,125.7z M138.3,128.6c-0.5,0.1-1-0.1-1.4-0.4l-0.7-0.4v-3.2l0.9,0.5
			c0.5,0.3,0.9,0.6,1.2,1.1c0.3,0.4,0.4,0.9,0.4,1.4C138.8,128.2,138.6,128.5,138.3,128.6z"/>
		<g class="st2">
			<polygon class="st3" points="89.4,111.1 89.4,112.6 95.5,116 95.5,114.6 			"/>
			<polygon class="st3" points="89.4,113.7 89.4,115.2 95.5,118.7 95.5,117.2 			"/>
			<polygon class="st4" points="89.4,116.4 89.4,117.8 95.5,121.3 95.5,119.8 			"/>
			<polygon class="st4" points="135,146.7 135,145.3 97.7,123.8 97.7,125.2 			"/>
			<polygon class="st4" points="89.4,119 89.4,120.4 95.5,123.9 95.5,122.5 			"/>
			<polygon class="st4" points="89.4,121.6 89.4,123.1 95.5,126.5 95.5,125.1 			"/>
			<polygon class="st4" points="135,149.3 135,147.9 97.7,126.4 97.7,127.8 			"/>
			<polygon class="st4" points="89.4,129.5 89.4,130.9 95.5,134.4 95.5,133 			"/>
			<polygon class="st4" points="89.4,132.1 89.4,133.6 95.5,137 95.5,135.6 			"/>
			<polygon class="st4" points="89.4,142.6 89.4,144.1 95.5,147.5 95.5,146.1 			"/>
			<polygon class="st4" points="89.4,145.2 89.4,146.7 95.5,150.2 95.5,148.7 			"/>
			<polygon class="st4" points="121.2,163.6 97.7,150 97.7,151.5 121.2,165 			"/>
			<polygon class="st3" points="122.5,164.3 122.5,165.7 135,172.9 135,171.5 			"/>
			<polygon class="st4" points="109.5,154.2 97.7,147.4 97.7,148.8 109.5,155.6 			"/>
			<polygon class="st4" points="110.8,154.9 110.8,156.4 135,170.3 135,168.9 			"/>
			<polygon class="st3" points="131.8,159.2 131.8,160.6 135,162.4 135,161 			"/>
			<polygon class="st4" points="114.5,146.6 97.7,136.9 97.7,138.3 114.5,148 			"/>
			<polygon class="st4" points="107.6,121.6 97.7,115.9 97.7,117.3 107.6,123 			"/>
			<polygon class="st4" points="123.8,130.9 108.8,122.3 108.8,123.8 123.8,132.4 			"/>
			<polygon class="st4" points="115.1,128.5 104.6,122.5 104.6,123.9 115.1,130 			"/>
			<polygon class="st4" points="126.1,134.9 116.3,129.3 116.3,130.7 126.1,136.4 			"/>
			<polygon class="st4" points="127.4,135.6 127.4,137.1 135,141.4 135,140 			"/>
			<polygon class="st4" points="99.7,122.3 99.7,123.7 107.6,128.3 107.6,126.8 			"/>
			<polygon class="st4" points="131.9,140.9 108.8,127.6 108.8,129 131.9,142.3 			"/>
			<polygon class="st4" points="118.7,141.1 103.7,132.4 103.7,133.9 118.7,142.6 			"/>
			<polygon class="st4" points="131.9,148.7 119.9,141.8 119.9,143.3 131.9,150.2 			"/>
			<polygon class="st4" points="130.6,155.8 115.7,147.3 115.7,148.7 130.6,157.3 			"/>
			<polygon class="st3" points="122.5,153.8 122.5,155.2 130.6,159.9 130.6,158.5 			"/>
			<polygon class="st4" points="100.7,141.2 97.7,139.5 97.7,141 100.7,142.6 			"/>
			<polygon class="st4" points="106.1,144.4 106.1,145.8 121.2,154.5 121.2,153.1 			"/>
			<polygon class="st4" points="104.9,143.6 101.9,141.9 101.9,143.4 104.9,145.1 			"/>
			<polygon class="st4" points="118.4,154.1 101.9,144.6 101.9,146 118.4,155.5 			"/>
		</g>
		<path class="st5" d="M269.4,129.8L250.7,119c-0.7-0.4-1.5-0.1-1.9,0.5c-0.1,0.2-0.2,0.4-0.2,0.7v22.4c0,1.1,0.6,2.1,1.5,2.6
			l18.7,10.8c0.7,0.4,1.5,0.2,1.9-0.5c0.1-0.2,0.2-0.5,0.2-0.7v-22.3C271,131.4,270.4,130.4,269.4,129.8z"/>
		<path class="st4" d="M294.9,86.5l-18.7-10.8c-0.7-0.4-1.5-0.1-1.9,0.5c-0.1,0.2-0.2,0.4-0.2,0.7v22.4c0,1.1,0.6,2.1,1.5,2.6
			l18.7,10.8c0.7,0.4,1.5,0.2,1.9-0.5c0.1-0.2,0.2-0.5,0.2-0.7V89.3C296.5,88.1,295.9,87.1,294.9,86.5z"/>
		<path class="st5" d="M352.7,203.6L334,192.8c-0.7-0.4-1.5-0.1-1.9,0.5c-0.1,0.2-0.2,0.4-0.2,0.7v22.4c0,1.1,0.6,2.1,1.5,2.6
			l18.7,10.8c0.7,0.4,1.5,0.2,1.9-0.5c0.1-0.2,0.2-0.5,0.2-0.7v-22.3C354.3,205.1,353.7,204.1,352.7,203.6z"/>
		<path class="st4" d="M189.9,148.5l-18.7-10.8c-0.7-0.4-1.5-0.1-1.9,0.5c-0.1,0.2-0.2,0.4-0.2,0.7v22.4c0,1.1,0.6,2.1,1.5,2.6
			l18.7,10.8c0.7,0.4,1.5,0.2,1.9-0.5c0.1-0.2,0.2-0.5,0.2-0.7v-22.3C191.5,150.1,190.9,149.1,189.9,148.5z"/>
		<path class="st10" d="M119.6,332.4c-5,0-3.3-3.7-3.3-3.7c-7.4-2.2-11-1-11-1c-1.1,3.9-1.5,8-1.2,12c0,0.8,0.5,1.3,1.3,1.5
			c4,1.5,7.6,2.5,14.9,1.7c5.4-0.5,11.2-5.6,9.9-10.7C129.3,329,124.6,332.4,119.6,332.4z"/>
		<path class="st11" d="M117.4,285.7c-1.5-1.9-3.9-3.5-8.1-2.4L65,291.9l1.7,11.4c4.6,5.4,11.9,7.6,18.7,5.6c7-2,13.6-5,19.6-9
			l-1.5,31.5c0,0,7,2.2,13.2-1.6c1-0.6,2-31,2.3-38.7C119.2,289.1,118.6,287.2,117.4,285.7z"/>
		<path class="st10" d="M140.9,341.5c-5.1,0-3.5-3.9-3.5-3.9c-7.6-2.3-11.4-1-11.4-1c-1.1,4-1.5,8.3-1.2,12.5c0,0.8,0.6,1.3,1.3,1.6
			c4.1,1.5,7.9,2.5,15.5,1.8c5.6-0.5,11.6-5.8,10.3-11.1C151,338,146.1,341.5,140.9,341.5z"/>
		<polygon class="st12" points="90.4,329 52.3,307 52.3,312.3 90.4,334.3 		"/>
		<polygon class="st13" points="87,287.1 52.3,307 90.4,329 125.1,309.1 		"/>
		<polygon class="st14" points="125.1,309.1 90.4,329 90.4,334.3 125.1,314.2 		"/>
		<path class="st15" d="M138.6,293c-1.5-2-4.1-3.6-8.4-2.5l-46.1,8.9l1.7,11.8c4.7,5.6,12.4,7.9,19.4,5.7c7.2-2,14.1-5.2,20.4-9.3
			l-1.6,32.7c0,0,7.2,2.2,13.7-1.6c1.1-0.6,2.1-32.1,2.4-40.2C140.4,296.5,139.9,294.6,138.6,293z"/>
		<path class="st4" d="M56.3,226.4l78.7-45.7c3.3-1.9,7.4-1.9,10.8,0l123.9,71.7c2.3,1.3,3,4.2,1.7,6.5c-0.4,0.7-1,1.3-1.7,1.7
			l-76.9,44.6c-4,2.3-8.9,2.3-12.8,0L56.3,233.8c-2-1.2-2.7-3.8-1.6-5.8C55.1,227.3,55.7,226.8,56.3,226.4z"/>
		<path class="st14" d="M56.3,233.8L180,305.3c4,2.3,8.9,2.3,12.8,0l76.9-44.7c1.5-0.8,2.4-2.4,2.4-4.1v5.9l0,0v0.1l0,0
			c0,1.7-0.9,3.2-2.4,4l-77,44.7c-4,2.3-8.9,2.3-12.8,0L56.3,239.7c-1.3-0.8-2.1-2.2-2.1-3.7l0,0v-5.9C54.2,231.6,55,233,56.3,233.8
			z"/>
		<path class="st12" d="M56.3,233.8L180,305.3c1.8,1,3.8,1.6,5.9,1.7v5.9c-2.1-0.1-4.1-0.7-5.9-1.7L56.3,239.7
			c-1.3-0.8-2.1-2.2-2.1-3.7l0,0v-5.9C54.2,231.6,55,233,56.3,233.8z"/>
		<path class="st16" d="M114.4,242.9l13.3-7.7c0.6-0.4,1.4-0.4,2,0L171,259c0.4,0.2,0.6,0.8,0.3,1.2c-0.1,0.1-0.2,0.3-0.3,0.3
			l-13,7.5c-0.7,0.4-1.7,0.4-2.4,0l-41.2-23.8c-0.4-0.2-0.5-0.7-0.3-1.1C114.2,243.1,114.3,243,114.4,242.9z"/>
		<path class="st17" d="M114.5,244.3l41.2,23.8c0.7,0.4,1.7,0.4,2.4,0l13-7.5c0.3-0.2,0.4-0.5,0.4-0.8v1.6l0,0
			c0,0.3-0.2,0.6-0.4,0.8l-13,7.5c-0.7,0.4-1.7,0.4-2.4,0l-41.2-23.8c-0.3-0.1-0.4-0.4-0.4-0.7l0,0v-1.6
			C114,243.9,114.2,244.2,114.5,244.3z"/>
		<polygon class="st18" points="127.7,237.4 129.3,236.4 131.2,237.5 129.6,238.4 		"/>
		<polygon class="st18" points="130,238.7 131.7,237.8 133.6,238.9 131.9,239.8 		"/>
		<polygon class="st18" points="132.4,240.1 134.1,239.1 136,240.2 134.3,241.2 		"/>
		<polygon class="st18" points="134.8,241.4 136.4,240.5 138.3,241.6 136.7,242.5 		"/>
		<polygon class="st18" points="137.1,242.8 138.8,241.9 140.7,242.9 139,243.9 		"/>
		<polygon class="st18" points="139.5,244.2 141.2,243.2 143.1,244.3 141.4,245.3 		"/>
		<polygon class="st18" points="141.9,245.5 143.5,244.6 145.4,245.7 143.8,246.6 		"/>
		<polygon class="st18" points="144.2,246.9 145.9,245.9 147.8,247 146.1,248 		"/>
		<polygon class="st18" points="146.6,248.3 148.3,247.3 150.2,248.4 148.5,249.4 		"/>
		<polygon class="st18" points="149,249.6 150.7,248.7 152.6,249.8 150.9,250.7 		"/>
		<polygon class="st18" points="151.4,251 153,250 154.9,251.1 153.3,252.1 		"/>
		<polygon class="st18" points="153.7,252.4 155.4,251.4 157.3,252.5 155.6,253.5 		"/>
		<polygon class="st18" points="157.8,252.8 159.7,253.9 158,254.8 156.1,253.7 		"/>
		<polygon class="st18" points="127.4,239.7 125.5,238.6 127.2,237.6 129.1,238.7 		"/>
		<polygon class="st18" points="131.4,240.1 129.8,241.1 127.9,240 129.5,239 		"/>
		<polygon class="st18" points="133.8,241.5 132.1,242.4 130.2,241.3 131.9,240.4 		"/>
		<polygon class="st18" points="136.2,242.8 134.5,243.8 132.6,242.7 134.3,241.7 		"/>
		<polygon class="st18" points="138.5,244.2 136.9,245.2 135,244.1 136.6,243.1 		"/>
		<polygon class="st18" points="140.9,245.6 139.3,246.5 137.3,245.4 139,244.5 		"/>
		<polygon class="st18" points="143.3,246.9 141.6,247.9 139.7,246.8 141.4,245.8 		"/>
		<polygon class="st18" points="145.6,248.3 144,249.3 142.1,248.2 143.8,247.2 		"/>
		<polygon class="st18" points="148,249.6 146.4,250.6 144.4,249.5 146.1,248.6 		"/>
		<polygon class="st18" points="150.4,251 148.7,252 146.8,250.9 148.5,249.9 		"/>
		<polygon class="st18" points="152.8,252.4 151.1,253.4 149.2,252.3 150.9,251.3 		"/>
		<polygon class="st18" points="155.1,253.8 153.5,254.7 151.6,253.6 153.2,252.6 		"/>
		<polygon class="st18" points="155.6,254 157.5,255.1 155.8,256.1 153.9,255 		"/>
		<polygon class="st18" points="125.2,241 123.3,239.9 125,238.9 126.9,240 		"/>
		<polygon class="st18" points="129.3,241.4 127.6,242.3 125.7,241.2 127.4,240.3 		"/>
		<polygon class="st18" points="128.1,242.6 129.7,241.6 131.6,242.7 130,243.7 		"/>
		<polygon class="st18" points="134,244.1 132.3,245.1 130.4,244 132.1,243 		"/>
		<polygon class="st18" points="136.4,245.4 134.7,246.4 132.8,245.3 134.5,244.4 		"/>
		<polygon class="st18" points="138.8,246.8 137.1,247.8 135.2,246.7 136.9,245.7 		"/>
		<polygon class="st18" points="141.1,248.2 139.4,249.1 137.6,248.1 139.2,247.1 		"/>
		<polygon class="st18" points="143.5,249.5 141.8,250.5 139.9,249.4 141.6,248.4 		"/>
		<polygon class="st18" points="145.9,250.9 144.2,251.9 142.3,250.8 144,249.8 		"/>
		<polygon class="st18" points="148.2,252.3 146.6,253.2 144.7,252.1 146.3,251.2 		"/>
		<polygon class="st18" points="150.6,253.6 148.9,254.6 147,253.5 148.7,252.5 		"/>
		<polygon class="st18" points="149.4,254.9 151.1,253.9 153,255 151.3,256 		"/>
		<polygon class="st18" points="153.4,255.3 155.3,256.4 153.7,257.3 151.8,256.2 		"/>
		<polygon class="st18" points="123.1,242.2 121.2,241.1 122.8,240.1 124.7,241.2 		"/>
		<polygon class="st18" points="123.5,242.5 125.2,241.5 127.1,242.6 125.4,243.6 		"/>
		<polygon class="st18" points="125.9,243.9 127.6,242.9 129.5,244 127.8,244.9 		"/>
		<polygon class="st18" points="128.3,245.2 129.9,244.2 131.8,245.3 130.2,246.3 		"/>
		<polygon class="st18" points="130.6,246.6 132.3,245.6 134.2,246.7 132.6,247.7 		"/>
		<polygon class="st18" points="133,247.9 134.7,247 136.6,248.1 134.9,249 		"/>
		<polygon class="st18" points="135.4,249.3 137.1,248.3 139,249.4 137.3,250.4 		"/>
		<polygon class="st18" points="137.8,250.7 139.4,249.7 141.3,250.8 139.7,251.8 		"/>
		<polygon class="st18" points="140.1,252 141.8,251.1 143.7,252.2 142,253.1 		"/>
		<polygon class="st18" points="142.5,253.4 144.2,252.4 146.1,253.5 144.4,254.5 		"/>
		<polygon class="st18" points="144.9,254.8 146.5,253.8 148.4,254.9 146.8,255.9 		"/>
		<polygon class="st18" points="147.2,256.1 148.9,255.2 150.8,256.3 149.1,257.2 		"/>
		<polygon class="st18" points="151.3,256.5 153.2,257.6 151.5,258.6 149.6,257.5 		"/>
		<polygon class="st18" points="120.9,243.5 119,242.4 120.7,241.4 122.6,242.5 		"/>
		<polygon class="st18" points="121.4,243.7 123,242.8 124.9,243.9 123.3,244.8 		"/>
		<polygon class="st18" points="123.7,245.1 125.4,244.1 127.3,245.2 125.6,246.2 		"/>
		<polygon class="st18" points="126.1,246.5 127.8,245.5 129.7,246.6 128,247.6 		"/>
		<polygon class="st18" points="128.5,247.8 130.1,246.9 132.1,248 130.4,248.9 		"/>
		<polygon class="st18" points="130.9,249.2 132.5,248.2 134.4,249.3 132.8,250.3 		"/>
		<polygon class="st18" points="133.2,250.6 134.9,249.6 136.8,250.7 135.1,251.6 		"/>
		<polygon class="st18" points="135.6,251.9 137.3,250.9 139.2,252.1 137.5,253 		"/>
		<polygon class="st18" points="138,253.3 139.6,252.3 141.5,253.4 139.9,254.4 		"/>
		<polygon class="st18" points="140.3,254.6 142,253.7 143.9,254.8 142.2,255.7 		"/>
		<polygon class="st18" points="142.7,256 144.4,255 146.3,256.1 144.6,257.1 		"/>
		<polygon class="st18" points="145.1,257.4 146.7,256.4 148.6,257.5 147,258.5 		"/>
		<polygon class="st18" points="149.1,257.8 151,258.9 149.4,259.8 147.4,258.7 		"/>
		<polygon class="st18" points="118.5,242.7 120.4,243.8 118.7,244.7 116.8,243.6 		"/>
		<polygon class="st18" points="122.8,245.1 121.1,246.1 119.2,245 120.9,244 		"/>
		<polygon class="st18" points="125.2,246.5 123.5,247.4 121.6,246.4 123.3,245.4 		"/>
		<polygon class="st18" points="127.5,247.8 125.8,248.8 123.9,247.7 125.6,246.8 		"/>
		<polygon class="st18" points="129.9,249.2 128.2,250.2 126.3,249.1 128,248.1 		"/>
		<polygon class="st18" points="132.3,250.6 130.6,251.5 128.7,250.4 130.4,249.5 		"/>
		<polygon class="st18" points="132.7,250.8 135.1,252.2 135.1,252.2 135.6,252.5 137.5,253.6 137.5,253.6 138.4,254.1 139.8,254.9 
			139.8,254.9 141.3,255.8 144.1,257.4 142.4,258.4 139.5,256.7 138.2,255.9 138.2,255.9 136.7,255.1 135.8,254.5 135.8,254.5 
			133.9,253.5 133.4,253.2 133.4,253.2 131.1,251.8 		"/>
		<polygon class="st18" points="146.5,258.8 144.8,259.7 142.9,258.6 144.6,257.7 		"/>
		<polygon class="st18" points="148.9,260.1 147.2,261.1 145.3,260 146.9,259 		"/>
		<polygon class="st18" points="160.8,256.5 162.5,255.5 164.4,256.6 162.7,257.5 		"/>
		<polygon class="st18" points="163.2,257.8 164.9,256.9 166.8,258 165.1,258.9 		"/>
		<polygon class="st18" points="165.6,259.2 167.3,258.2 169.1,259.3 167.5,260.3 		"/>
		<polygon class="st18" points="162.2,257.8 160.6,258.8 158.7,257.7 160.3,256.7 		"/>
		<polygon class="st18" points="164.6,259.2 162.9,260.2 161,259.1 162.7,258.1 		"/>
		<polygon class="st18" points="167,260.6 165.3,261.5 163.4,260.4 165.1,259.5 		"/>
		<polygon class="st18" points="160.1,259.1 158.4,260.1 156.5,259 158.2,258 		"/>
		<polygon class="st18" points="162.4,260.5 160.8,261.4 158.9,260.3 160.6,259.4 		"/>
		<polygon class="st18" points="164.8,261.8 163.1,262.8 161.3,261.7 162.9,260.7 		"/>
		<polygon class="st18" points="154.3,260.2 156,259.3 157.9,260.3 156.3,261.3 		"/>
		<polygon class="st18" points="156.7,261.6 158.4,260.6 160.3,261.7 158.6,262.7 		"/>
		<polygon class="st18" points="159.1,262.9 160.8,262 162.7,263.1 161,264 		"/>
		<polygon class="st18" points="152.2,261.5 153.9,260.5 155.8,261.6 154.1,262.6 		"/>
		<polygon class="st18" points="154.6,262.8 156.2,261.9 158.1,263 156.5,263.9 		"/>
		<polygon class="st18" points="156.9,264.2 158.6,263.2 160.5,264.3 158.8,265.3 		"/>
		<polygon class="st18" points="153.6,262.9 151.9,263.8 150,262.7 151.7,261.8 		"/>
		<polygon class="st18" points="156,264.2 154.3,265.2 152.4,264.1 154.1,263.1 		"/>
		<path class="st18" d="M144.1,230.1l13.1-7.6c0.6-0.3,1.2-0.3,1.8,0l31.2,18c0.4,0.2,0.5,0.7,0.3,1.1c-0.1,0.1-0.2,0.2-0.3,0.3
			l-12.8,7.5c-0.7,0.4-1.5,0.4-2.1,0l-31.1-18c-0.3-0.2-0.4-0.6-0.2-1C143.9,230.2,144,230.2,144.1,230.1z"/>
		<path class="st19" d="M144.1,231.3l31.1,18c0.7,0.4,1.5,0.4,2.1,0l12.8-7.5c0.2-0.1,0.4-0.4,0.4-0.7v1.6l0,0
			c0,0.3-0.2,0.5-0.4,0.7l-12.8,7.5c-0.7,0.4-1.5,0.4-2.1,0l-31.1-18c-0.2-0.1-0.4-0.4-0.4-0.6l0,0v-1.6
			C143.7,231,143.9,231.2,144.1,231.3z"/>
		<path class="st17" d="M144.1,231.3l31.1,18c0.3,0.2,0.6,0.3,1,0.3v1.6c-0.4,0-0.7-0.1-1-0.3l-31.1-18c-0.2-0.1-0.4-0.4-0.4-0.6
			l0,0v-1.6C143.7,231,143.9,231.2,144.1,231.3z"/>
		<polygon class="st16" points="178.1,231.3 153.9,217.3 153.9,229.3 178.1,243.3 		"/>
		<polygon class="st19" points="157.3,215.4 153.9,217.3 178.1,231.3 181.5,229.4 		"/>
		<polygon class="st19" points="181.5,229.4 178.1,231.3 178.1,243.3 181.5,241.3 		"/>
		
			<linearGradient id="SVGID_1_" gradientUnits="userSpaceOnUse" x1="156.6808" y1="403.8628" x2="179.8508" y2="480.1028" gradientTransform="matrix(1 0 0 -1 0 640)">
			<stop  offset="0" style="stop-color:#1C75BC"/>
			<stop  offset="0.28" style="stop-color:#2077BC"/>
			<stop  offset="0.54" style="stop-color:#2B7EBC"/>
			<stop  offset="0.8" style="stop-color:#3E88BC"/>
			<stop  offset="1" style="stop-color:#5394BC"/>
		</linearGradient>
		<polygon class="st20" points="129.4,156.2 203.1,198.9 203.1,253.1 129.4,210.2 		"/>
		<polygon class="st19" points="203.1,198.9 205.5,197.4 205.5,251.6 203.1,253.1 		"/>
		<polygon class="st18" points="129.4,156.2 132,154.8 205.5,197.4 203.1,198.9 		"/>
		<path class="st17" d="M129.4,156.2v54l73.6,42.9v-54.2L129.4,156.2z M201.3,250.1l-70.1-40.8v-50l70.1,40.7L201.3,250.1
			L201.3,250.1z"/>
		
			<ellipse transform="matrix(9.809932e-02 -0.9952 0.9952 9.809932e-02 -138.9057 290.6122)" class="st21" cx="90.9" cy="221.9" rx="14.1" ry="11.4"/>
		<path class="st22" d="M111.6,241.1c0,0,2.7,0.7,3.7,0.8s4.5,0.8,6,0.4s-1.3-1.4-2-1.9s-0.7-1.8,0.8-2.2s4.8-0.2,6.6-0.5
			c1.8-0.3-1.8-5.6-4.6-6.1c-2.7-0.5-5.5-0.2-7.9,1.1c-2.5,1.2-3.8,3.3-4.9,3.7L111.6,241.1z"/>
		<path class="st23" d="M111.9,233.8l-18.7,4.7l-0.9,11.9l22-7.6C114.8,238.6,111.9,233.8,111.9,233.8z"/>
		<path class="st23" d="M65.8,238.9c0,0-5.2,6.5,0,15.5c0,0,3.6,5,13.5,0.1L65.8,238.9z"/>
		<path class="st24" d="M81.2,231.3c0,0,8-0.6,14.4,3.9c0.4,0.9,1,1.6,1.7,2.2c1.3,0.8,7.5,3.4,7.5,3.4s-2.8,36.7,0.4,54.6
			c0,0-13.6,10.6-34.8,0c0,0-3.1-45.1-4.5-56.4C65.8,238.9,69.4,234.5,81.2,231.3z"/>
		<polygon class="st13" points="77.6,291.9 39.5,269.9 52.3,307 90.4,329 		"/>
		<polygon class="st12" points="43.7,267.4 39.5,269.9 77.6,291.9 81.9,289.4 		"/>
		<polygon class="st14" points="81.9,289.4 77.6,291.9 90.4,329 94.7,326.5 		"/>
		<path class="st22" d="M136.7,257.4c0,0,2.1-2.1,2.9-2.7s3.6-3.2,5.2-3.6s-1.1,2.4-1.4,3.2s1.6-0.7,3.1-1.2c1.6-0.5,3.4-0.5,5,0.2
			c3.6,1.3,3.4,8.5,0.5,7.6c-4.9-1.4-7,2.5-9.9,3.3c-1.3,0.3-2.7,0.6-4.1,0.8L136.7,257.4z"/>
		<path class="st23" d="M104.8,240.6l15.8,20.9l16.4-4.8c0,0,3.5,4.4,2.4,9.1l-21.8,8.5l-17.8-19.5
			C99.7,254.8,93.7,242.4,104.8,240.6z"/>
		<path class="st25" d="M96,201.4c0,0,1.2,2.9-4.6,3.7s-13,3.7-14.8,9.8c-1.2,3.9,0.2,8.1,2.2,11.5c0.7,1.2,1.4,2.3,2.3,3.4
			c2.9,0.5,6,0,8.6-1.5c2-1.5,3.6-3.4,4.6-5.6c0,0,3.4,1.4,4.5-1.4c0.8-2.1,3.3-2.6,4.6-3.8C103.3,217.4,111.2,204.6,96,201.4z"/>
		<polygon class="st12" points="312.2,312.5 286.9,297.9 286.9,307.3 312.2,321.9 		"/>
		<polygon class="st3" points="313,282.9 286.9,297.9 312.2,312.5 338.3,297.5 		"/>
		<polygon class="st14" points="338.3,297.5 312.2,312.5 312.2,321.9 338.3,306.8 		"/>
		<polygon class="st12" points="312.2,297.1 286.9,282.4 286.9,291.9 312.2,306.5 		"/>
		<polygon class="st3" points="313,267.4 286.9,282.4 312.2,297.1 338.3,282.1 		"/>
		<polygon class="st14" points="338.3,282.1 312.2,297.1 312.2,306.5 338.3,291.4 		"/>
		<polygon class="st12" points="269.5,337.2 244.3,322.6 244.3,332 269.5,346.6 		"/>
		<polygon class="st3" points="270.3,307.6 244.3,322.6 269.5,337.2 295.6,322.2 		"/>
		<polygon class="st14" points="295.6,322.2 269.5,337.2 269.5,346.6 295.6,331.5 		"/>
		<polygon class="st12" points="269.5,321.8 244.3,307.1 244.3,316.6 269.5,331.2 		"/>
		<polygon class="st3" points="270.3,292.1 244.3,307.1 269.5,321.8 295.6,306.8 		"/>
		<polygon class="st14" points="295.6,306.8 269.5,321.8 269.5,331.2 295.6,316.1 		"/>
		<polygon class="st12" points="226.8,361.9 201.6,347.3 201.6,356.7 226.8,371.3 		"/>
		<polygon class="st3" points="227.7,332.3 201.6,347.3 226.8,361.9 252.9,346.9 		"/>
		<polygon class="st14" points="252.9,346.9 226.8,361.9 226.8,371.3 252.9,356.2 		"/>
		<polygon class="st12" points="226.8,346.5 201.6,331.9 201.6,341.3 226.8,355.9 		"/>
		<polygon class="st3" points="227.7,316.9 201.6,331.9 226.8,346.5 252.9,331.5 		"/>
		<polygon class="st14" points="252.9,331.5 226.8,346.5 226.8,355.9 252.9,340.8 		"/>
		<path class="st13" d="M234.7,337.2l-1.6-0.9c-1.2,0.5-2.4,0.8-3.7,0.9v1.3h-3.9v-1.3c-1.3-0.1-2.5-0.4-3.7-0.9l-1.6,0.9l-2.7-1.6
			l1.6-0.9c-0.7-0.6-1.2-1.3-1.6-2.1h-2.2v-2.2h2.2c0.3-0.8,0.8-1.6,1.5-2.1l-1.6-0.9l2.7-1.6l1.6,0.9c1.2-0.5,2.4-0.8,3.7-0.9v-1.3
			h3.9v1.3c1.3,0.1,2.5,0.4,3.7,0.9l1.6-0.9l2.7,1.6l-1.6,0.9c0.7,0.6,1.2,1.3,1.6,2.1h2.2v2.2h-2.2c-0.3,0.8-0.8,1.6-1.5,2.1
			l1.6,0.9L234.7,337.2z M223.9,333.5c2.2,1.1,4.9,1.1,7.1,0c2-1.1,2-3,0-4.1c-2.2-1.1-4.9-1.1-7.1,0
			C221.9,330.5,221.9,332.4,223.9,333.5"/>
		<polygon class="st7" points="272.3,300.3 274.7,305.5 277.2,310.8 268.1,309.4 259.1,308 265.7,304.1 		"/>
		<path class="st26" d="M303.1,280.9c-1.3-0.8-0.7-1.9,1.8-3.4c1.1-0.7,2.2-1.1,3.5-1.4c0.8-0.2,1.7-0.1,2.5,0.2
			c0.3,0.1,0.5,0.4,0.7,0.6c0.1,0.2,0.2,0.4,0.3,0.7l2.4-0.6c-0.1-0.4-0.3-0.7-0.6-1c-0.3-0.3-0.6-0.6-1-0.8c-1.4-0.7-2.9-1-4.5-0.8
			c-1.9,0.2-3.7,0.9-5.3,1.9c-1.8,1.1-2.9,2.1-3.2,3s0.1,1.8,1.4,2.6c0.8,0.5,1.7,0.8,2.7,0.9l1.9-1.1
			C304.8,281.6,303.9,281.3,303.1,280.9z"/>
		<path class="st26" d="M314.5,283.8c0.2-0.6,0.2-1.2,0-1.8c-0.2-0.4-0.2-0.8-0.2-1.2c0.1-0.3,0.3-0.6,0.7-0.8
			c0.4-0.2,0.8-0.3,1.2-0.4c0.4,0,0.8,0.1,1.1,0.3c0.3,0.1,0.5,0.4,0.7,0.6c0.1,0.2,0.3,0.4,0.4,0.7l2.4-0.6c-0.4-0.8-1-1.4-1.8-1.9
			c-0.9-0.5-1.9-0.8-3-0.8s-2.1,0.3-3.1,0.9c-0.4,0.2-0.8,0.5-1.1,0.9c-0.2,0.3-0.4,0.6-0.5,0.9c0,0.4,0,0.8,0.1,1.2
			c0.2,0.4,0.2,0.9,0.2,1.3c-0.1,0.4-0.3,0.7-0.7,0.8c-0.4,0.2-0.8,0.3-1.2,0.3c-0.4,0-0.9-0.1-1.2-0.3c-0.7-0.4-1.2-1.1-1.5-1.8
			l-2.1,1.2c0.5,0.8,1.1,1.4,1.9,1.8c0.9,0.6,2,0.8,3.1,0.8s2.2-0.4,3.2-0.9C313.7,284.8,314.2,284.3,314.5,283.8z"/>
		<path class="st26" d="M325.4,282.6c-0.9-0.5-1.9-0.8-3-0.8s-2.1,0.3-3.1,0.9c-0.4,0.2-0.8,0.5-1.1,0.9c-0.2,0.3-0.4,0.6-0.5,0.9
			c0,0.4,0,0.8,0.1,1.2c0.2,0.4,0.2,0.9,0.2,1.3c-0.1,0.3-0.3,0.6-0.7,0.8c-0.4,0.2-0.8,0.3-1.2,0.3c-0.4,0-0.9-0.1-1.2-0.3
			c-0.7-0.4-1.2-1.1-1.5-1.8l-2.1,1.2c0.5,0.8,1.1,1.4,1.9,1.8c0.9,0.6,2,0.9,3.1,0.8c1.1,0,2.2-0.3,3.2-0.9c0.6-0.3,1-0.7,1.3-1.3
			c0.2-0.6,0.2-1.2,0-1.8c-0.2-0.4-0.2-0.8-0.2-1.2c0.1-0.3,0.3-0.6,0.7-0.8c0.4-0.2,0.8-0.3,1.2-0.4c0.4,0,0.8,0.1,1.1,0.3
			c0.3,0.1,0.5,0.4,0.7,0.6c0.1,0.2,0.3,0.4,0.4,0.7l2.4-0.6C326.9,283.6,326.2,283,325.4,282.6z"/>
		<path class="st6" d="M311.6,198.3l-24.5-14.1c-0.8-0.4-1.7-0.4-2.5,0.1l0,0l-5.4,3.1l2.5,3.4l0.9,1.1v24.3c0,1.4,0.8,2.8,2,3.5
			l18.4,10.6l0.2,1l3.7,5.3l5.8-3.4l0,0l0,0l0,0c0.5-0.3,0.9-0.9,0.9-1.6V202C313.6,200.4,312.9,199,311.6,198.3z"/>
		<path class="st7" d="M305.9,201.6l-24.8-14.3c-0.9-0.5-2-0.2-2.5,0.7c-0.2,0.3-0.2,0.6-0.2,0.9v29.7c0,1.4,0.7,2.8,2,3.5
			l24.8,14.3c0.9,0.5,2,0.2,2.5-0.7c0.2-0.3,0.2-0.6,0.2-0.9v-29.6C308,203.8,307.2,202.4,305.9,201.6z"/>
		<path class="st8" d="M307,236.4L307,236.4L307,236.4z"/>
		<path class="st9" d="M308,234.8v-29.6c0-0.5-0.1-1-0.3-1.4l5.8-3.3c0.2,0.4,0.3,0.9,0.3,1.4v29.6c0,0.6-0.3,1.2-0.9,1.6l0,0l0,0
			l0,0l-5.9,3.4C307.6,236.1,308,235.5,308,234.8z"/>
		<path class="st13" d="M339.7,139.2L315.2,125c-0.8-0.4-1.7-0.4-2.5,0.1l0,0l-5.4,3.1l2.5,3.4l0.9,1.1V157c0,1.4,0.8,2.8,2,3.5
			l18.4,10.6l0.2,1l3.7,5.3l5.8-3.4l0,0l0,0l0,0c0.5-0.3,0.9-0.9,0.9-1.6v-29.6C341.7,141.4,340.9,140,339.7,139.2z"/>
		<path class="st12" d="M333.9,142.6l-24.8-14.3c-0.9-0.5-2-0.2-2.5,0.7c-0.2,0.3-0.2,0.6-0.2,0.9v29.7c0,1.4,0.7,2.8,2,3.5
			l24.8,14.3c0.9,0.5,2,0.2,2.5-0.7c0.2-0.3,0.2-0.6,0.2-0.9v-29.6C336,144.7,335.2,143.3,333.9,142.6z"/>
		<path class="st8" d="M335.1,177.4L335.1,177.4L335.1,177.4z"/>
		<path class="st14" d="M336,175.8v-29.6c0-0.5-0.1-1-0.3-1.4l5.8-3.3c0.2,0.4,0.3,0.9,0.3,1.4v29.5c0,0.6-0.3,1.2-0.9,1.6l0,0l0,0
			l0,0l-5.7,3.4C335.7,177,336,176.4,336,175.8z"/>
		<path class="st24" d="M257.7,139.6l-24.5-14.2c-0.8-0.4-1.7-0.4-2.4,0.1l0,0l-5.4,3.1l2.5,3.4l0.9,1.1v24.3c0,1.4,0.8,2.8,2,3.5
			l18.4,10.6l0.2,1l3.7,5.3l5.8-3.4l0,0l0,0l0,0c0.5-0.3,0.9-0.9,0.9-1.6v-29.6C259.7,141.8,259,140.4,257.7,139.6z"/>
		<path class="st13" d="M252,143l-24.8-14.3c-0.9-0.5-2-0.2-2.5,0.7c-0.2,0.3-0.2,0.6-0.2,0.9V160c0,1.4,0.7,2.8,2,3.5l24.8,14.3
			c0.9,0.5,2,0.2,2.5-0.7c0.2-0.3,0.2-0.6,0.2-0.9v-29.6C254.1,145.1,253.3,143.8,252,143z"/>
		<path class="st8" d="M253.1,177.8L253.1,177.8L253.1,177.8z"/>
		<path class="st12" d="M254.1,176.2v-29.6c0-0.5-0.1-1-0.3-1.4l5.8-3.3c0.2,0.4,0.3,0.9,0.3,1.4v29.6c0,0.6-0.3,1.2-0.9,1.6l0,0
			l0,0l0,0l-5.7,3.4C253.7,177.4,254.1,176.8,254.1,176.2z"/>
		<path class="st13" d="M204,82.4l-24.5-14.2c-0.8-0.4-1.7-0.4-2.4,0.1l0,0l-5.4,3.1l2.5,3.4l0.9,1.1v24.3c0,1.4,0.8,2.8,2,3.5
			l18.4,10.6l0.2,1l3.7,5.3l5.8-3.4l0,0l0,0l0,0c0.5-0.3,0.9-0.9,0.9-1.6V86C206,84.5,205.3,83.2,204,82.4z"/>
		<path class="st12" d="M198.3,85.8l-24.8-14.3c-0.9-0.5-2-0.2-2.5,0.7c-0.1,0.3-0.2,0.6-0.2,0.9v29.7c0,1.4,0.7,2.8,2,3.5
			l24.8,14.3c0.9,0.5,2,0.2,2.5-0.7c0.2-0.3,0.2-0.6,0.2-0.9V89.4C200.4,87.9,199.6,86.5,198.3,85.8z"/>
		<path class="st8" d="M199.4,120.6L199.4,120.6L199.4,120.6z"/>
		<path class="st14" d="M200.4,118.9V89.4c0-0.5-0.1-1-0.3-1.4l5.8-3.3c0.2,0.4,0.2,0.9,0.3,1.3v29.6c0,0.6-0.3,1.2-0.9,1.6l0,0l0,0
			l0,0l-5.7,3.4C200,120.2,200.4,119.6,200.4,118.9z"/>
		<path class="st3" d="M247.1,148.9c-1.3-2.4-3.2-4.3-5.4-5.8c-2-1.1-4-1.4-5.5-0.6c-2.7,1.5-3,6.1-0.9,10.8l-6.7,3.8l2,3.4l6.7-3.8
			c1.2,1.7,2.7,3.1,4.4,4.1c2,1.1,3.9,1.4,5.5,0.6C250.1,159.7,250.1,154.1,247.1,148.9z M245.1,158c-1.1,0.5-2.5,0.4-3.5-0.4
			c-1.5-0.9-2.7-2.2-3.5-3.7c-1.9-3.3-1.9-6.9,0-8c1.1-0.5,2.5-0.4,3.5,0.4c1.5,0.9,2.7,2.2,3.5,3.7C247,153.3,247,156.9,245.1,158z
			"/>
		<path class="st3" d="M314.5,140.7c-0.3,0.5-0.5,1-0.4,1.6v3.7c0,0.7-0.2,1-0.6,1.1c-0.7,0-1.3-0.2-1.8-0.6v2.5
			c0.7,0.4,1.3,0.9,1.8,1.5c0.4,0.5,0.7,1.2,0.6,1.9v3.5c0,0.7,0.1,1.4,0.4,2.1c0.3,0.6,0.7,1.2,1.3,1.7c0.7,0.6,1.5,1.2,2.4,1.7
			V159c-0.5-0.3-1-0.7-1.3-1.2c-0.2-0.4-0.4-0.9-0.4-1.4v-3.5c-0.1-1.5-0.9-2.9-2.2-3.7v-0.1c1.5,0.6,2.2,0.2,2.2-1.2v-3.4
			c0-0.5,0.1-0.9,0.4-1s0.7,0,1.3,0.4v-2.3c-0.7-0.5-1.5-0.8-2.4-1.1C315.4,140.3,314.9,140.4,314.5,140.7z"/>
		<path class="st3" d="M328.4,155.7c-0.4-0.5-0.6-1.2-0.6-1.8v-3.6c0-1.1-0.3-2.1-0.9-2.9c-0.9-1-2-1.9-3.2-2.5v2.3
			c0.5,0.3,1,0.7,1.3,1.2c0.2,0.4,0.4,0.9,0.4,1.4v3.3c0.1,1.6,0.9,3,2.2,3.8v0.2c-0.5-0.3-1.1-0.3-1.7-0.2
			c-0.4,0.2-0.6,0.6-0.6,1.3v3.5c0,0.5-0.1,0.9-0.4,1s-0.7,0-1.3-0.4v2.3c1.5,0.9,2.5,1.2,3.2,1.1s0.9-0.8,0.9-1.9v-3.5
			c0-0.7,0.2-1.1,0.6-1.2c0.7,0,1.3,0.2,1.8,0.6v-2.5C329.5,156.8,328.9,156.3,328.4,155.7z"/>
		<polygon class="st3" points="281.5,206.5 289.2,214.8 289.2,212.7 283.9,207.1 289.2,207.4 289.2,205.2 281.5,205.2 		"/>
		<polygon class="st3" points="290,217.1 292.1,218.3 296.4,207.7 294.2,206.5 		"/>
		<polygon class="st3" points="297.1,209.8 297.1,211.9 302.4,217.8 297.1,217.3 297.1,219.4 304.8,219.9 304.8,218.6 		"/>
		<polygon class="st6" points="138.6,167.5 138.6,168.9 144.6,172.4 144.6,170.9 		"/>
		<polygon class="st27" points="138.6,170.1 138.6,171.5 144.6,175 144.6,173.6 		"/>
		<polygon class="st27" points="138.6,172.7 138.6,174.1 144.6,177.6 144.6,176.2 		"/>
		<polygon class="st27" points="184.2,203.1 184.2,201.6 146.9,180.1 146.9,181.6 		"/>
		<polygon class="st27" points="138.6,175.3 138.6,176.8 144.6,180.3 144.6,178.8 		"/>
		<polygon class="st27" points="138.6,178 138.6,179.4 144.6,182.9 144.6,181.4 		"/>
		<polygon class="st13" points="184.2,205.7 184.2,204.2 146.9,182.8 146.9,184.2 		"/>
		<polygon class="st27" points="138.6,185.8 138.6,187.3 144.6,190.8 144.6,189.3 		"/>
		<polygon class="st6" points="138.6,188.5 138.6,189.9 144.6,193.4 144.6,191.9 		"/>
		<polygon class="st27" points="138.6,199 138.6,200.4 144.6,203.9 144.6,202.4 		"/>
		<polygon class="st27" points="138.6,201.6 138.6,203 144.6,206.5 144.6,205.1 		"/>
		<polygon class="st13" points="170.4,219.9 146.9,206.4 146.9,207.8 170.4,221.4 		"/>
		<polygon class="st27" points="171.6,220.6 171.6,222.1 184.2,229.3 184.2,227.9 		"/>
		<polygon class="st27" points="158.7,210.6 146.9,203.8 146.9,205.2 158.7,212 		"/>
		<polygon class="st27" points="159.9,211.3 159.9,212.7 184.2,226.7 184.2,225.2 		"/>
		<polygon class="st27" points="181,215.5 181,217 184.2,218.8 184.2,217.4 		"/>
		<polygon class="st6" points="163.6,202.9 146.9,193.3 146.9,194.7 163.6,204.3 		"/>
		<polygon class="st27" points="156.8,177.9 146.9,172.3 146.9,173.7 156.8,179.4 		"/>
		<polygon class="st27" points="173,187.3 158,178.7 158,180.1 173,188.7 		"/>
		<polygon class="st27" points="164.3,184.9 153.7,178.8 153.7,180.3 164.3,186.3 		"/>
		<polygon class="st6" points="175.3,191.3 165.5,185.6 165.5,187 175.3,192.7 		"/>
		<polygon class="st27" points="176.6,192 176.6,193.4 184.2,197.8 184.2,196.4 		"/>
		<polygon class="st6" points="148.9,178.6 148.9,180.1 156.8,184.6 156.8,183.2 		"/>
		<polygon class="st27" points="181.1,197.2 158,183.9 158,185.4 181.1,198.6 		"/>
		<polygon class="st27" points="167.9,197.5 152.8,188.8 152.8,190.2 167.9,198.9 		"/>
		<polygon class="st27" points="181.1,205.1 169.1,198.2 169.1,199.6 181.1,206.5 		"/>
		<polygon class="st27" points="179.7,212.2 164.9,203.6 164.9,205.1 179.7,213.6 		"/>
		<polygon class="st13" points="171.6,210.1 171.6,211.6 179.7,216.3 179.7,214.8 		"/>
		<polygon class="st27" points="149.8,197.6 146.9,195.9 146.9,197.3 149.8,199 		"/>
		<polygon class="st27" points="155.3,200.7 155.3,202.1 170.4,210.9 170.4,209.4 		"/>
		<polygon class="st27" points="154,200 151.1,198.3 151.1,199.7 154,201.4 		"/>
		<polygon class="st27" points="167.6,210.4 151.1,200.9 151.1,202.3 167.6,211.9 		"/>
		<polygon class="st27" points="186.8,195.3 186.8,195.7 188.4,196.6 188.4,196.2 		"/>
		<polygon class="st27" points="186.8,196 186.8,196.4 188.4,197.4 188.4,196.9 		"/>
		<polygon class="st27" points="186.8,196.7 186.8,197.1 188.4,198.1 188.4,197.7 		"/>
		<polygon class="st27" points="199.3,205.1 199.3,204.7 189.1,198.8 189.1,199.1 		"/>
		<polygon class="st27" points="186.8,197.4 186.8,197.8 188.4,198.8 188.4,198.4 		"/>
		<polygon class="st27" points="186.8,198.2 186.8,198.6 188.4,199.5 188.4,199.1 		"/>
		<polygon class="st27" points="199.3,205.8 199.3,205.4 189.1,199.5 189.1,199.9 		"/>
		<polygon class="st27" points="186.8,200.3 186.8,200.7 188.4,201.7 188.4,201.3 		"/>
		<polygon class="st27" points="186.8,201.1 186.8,201.4 188.4,202.4 188.4,202 		"/>
		<polygon class="st27" points="186.8,203.9 186.8,204.3 188.4,205.3 188.4,204.9 		"/>
		<polygon class="st27" points="186.8,204.7 186.8,205.1 188.4,206 188.4,205.6 		"/>
		<polygon class="st27" points="195.5,209.7 189.1,206 189.1,206.4 195.5,210.1 		"/>
		<polygon class="st27" points="195.9,209.9 195.9,210.3 199.3,212.3 199.3,211.9 		"/>
		<polygon class="st27" points="192.3,207.1 189.1,205.3 189.1,205.7 192.3,207.5 		"/>
		<polygon class="st27" points="192.7,207.3 192.7,207.7 199.3,211.6 199.3,211.2 		"/>
		<polygon class="st27" points="198.4,208.5 198.4,208.9 199.3,209.4 199.3,209 		"/>
		<polygon class="st27" points="193.7,205 189.1,202.4 189.1,202.8 193.7,205.4 		"/>
		<polygon class="st27" points="191.8,198.2 189.1,196.6 189.1,197 191.8,198.6 		"/>
		<polygon class="st27" points="196.3,200.7 192.1,198.4 192.1,198.8 196.3,201.1 		"/>
		<polygon class="st27" points="193.9,200.1 190.9,198.4 190.9,198.8 193.9,200.5 		"/>
		<polygon class="st27" points="196.9,201.8 194.2,200.3 194.2,200.7 196.9,202.2 		"/>
		<polygon class="st27" points="197.2,202 197.2,202.4 199.3,203.6 199.3,203.2 		"/>
		<polygon class="st27" points="189.6,198.3 189.6,198.7 191.8,200 191.8,199.6 		"/>
		<polygon class="st27" points="198.5,203.5 192.1,199.8 192.1,200.2 198.5,203.9 		"/>
		<polygon class="st27" points="194.8,203.5 190.7,201.1 190.7,201.5 194.8,203.9 		"/>
		<polygon class="st27" points="198.5,205.6 195.2,203.7 195.2,204.1 198.5,206 		"/>
		<polygon class="st27" points="198.1,207.6 194,205.2 194,205.6 198.1,208 		"/>
		<polygon class="st27" points="195.9,207 195.9,207.4 198.1,208.7 198.1,208.3 		"/>
		<polygon class="st27" points="189.9,203.6 189.1,203.1 189.1,203.5 189.9,203.9 		"/>
		<polygon class="st27" points="191.4,204.4 191.4,204.8 195.5,207.2 195.5,206.8 		"/>
		<polygon class="st27" points="191,204.2 190.2,203.8 190.2,204.1 191,204.6 		"/>
		<polygon class="st27" points="194.8,207.1 190.2,204.5 190.2,204.9 194.8,207.5 		"/>
		<polygon class="st27" points="186.8,207.5 186.8,207.9 188.4,208.9 188.4,208.5 		"/>
		<polygon class="st27" points="186.8,208.2 186.8,208.6 188.4,209.6 188.4,209.2 		"/>
		<polygon class="st27" points="186.8,208.9 186.8,209.4 188.4,210.3 188.4,209.9 		"/>
		<polygon class="st27" points="199.3,217.3 199.3,216.9 189.1,211 189.1,211.4 		"/>
		<polygon class="st27" points="186.8,209.7 186.8,210.1 188.4,211 188.4,210.6 		"/>
		<polygon class="st27" points="186.8,210.4 186.8,210.8 188.4,211.8 188.4,211.4 		"/>
		<polygon class="st27" points="199.3,218 199.3,217.6 189.1,211.7 189.1,212.1 		"/>
		<polygon class="st27" points="186.8,212.6 186.8,213 188.4,213.9 188.4,213.5 		"/>
		<polygon class="st27" points="186.8,213.3 186.8,213.7 188.4,214.6 188.4,214.3 		"/>
		<polygon class="st27" points="186.8,216.2 186.8,216.6 188.4,217.5 188.4,217.1 		"/>
		<polygon class="st27" points="186.8,216.9 186.8,217.3 188.4,218.3 188.4,217.9 		"/>
		<polygon class="st27" points="195.5,222 189.1,218.2 189.1,218.6 195.5,222.4 		"/>
		<polygon class="st27" points="195.9,222.2 195.9,222.6 199.3,224.5 199.3,224.1 		"/>
		<polygon class="st27" points="192.3,219.4 189.1,217.5 189.1,217.9 192.3,219.8 		"/>
		<polygon class="st27" points="192.7,219.6 192.7,220 199.3,223.8 199.3,223.4 		"/>
		<polygon class="st27" points="198.4,220.8 198.4,221.1 199.3,221.6 199.3,221.3 		"/>
		<polygon class="st27" points="193.7,217.3 189.1,214.6 189.1,215 193.7,217.7 		"/>
		<polygon class="st27" points="191.8,210.4 189.1,208.8 189.1,209.2 191.8,210.8 		"/>
		<polygon class="st27" points="196.3,213 192.1,210.6 192.1,211 196.3,213.4 		"/>
		<polygon class="st27" points="193.9,212.3 190.9,210.6 190.9,211 193.9,212.7 		"/>
		<polygon class="st27" points="196.9,214.1 194.2,212.5 194.2,212.9 196.9,214.5 		"/>
		<polygon class="st27" points="197.2,214.3 197.2,214.6 199.3,215.9 199.3,215.5 		"/>
		<polygon class="st27" points="189.6,210.6 189.6,211 191.8,212.2 191.8,211.8 		"/>
		<polygon class="st27" points="198.5,215.7 192.1,212 192.1,212.4 198.5,216.1 		"/>
		<polygon class="st27" points="194.8,215.8 190.7,213.4 190.7,213.8 194.8,216.2 		"/>
		<polygon class="st27" points="198.5,217.9 195.2,216 195.2,216.4 198.5,218.3 		"/>
		<polygon class="st27" points="198.1,219.8 194,217.5 194,217.9 198.1,220.2 		"/>
		<polygon class="st27" points="195.9,219.3 195.9,219.7 198.1,220.9 198.1,220.6 		"/>
		<polygon class="st27" points="189.9,215.8 189.1,215.3 189.1,215.7 189.9,216.2 		"/>
		<polygon class="st27" points="191.4,216.7 191.4,217.1 195.5,219.5 195.5,219.1 		"/>
		<polygon class="st27" points="191,216.5 190.2,216 190.2,216.4 191,216.9 		"/>
		<polygon class="st27" points="194.8,219.3 190.2,216.7 190.2,217.1 194.8,219.7 		"/>
		<polygon class="st27" points="186.8,219.7 186.8,220.1 188.4,221.1 188.4,220.7 		"/>
		<polygon class="st27" points="186.8,220.5 186.8,220.9 188.4,221.8 188.4,221.4 		"/>
		<polygon class="st27" points="186.8,221.2 186.8,221.6 188.4,222.5 188.4,222.1 		"/>
		<polygon class="st27" points="199.3,229.6 199.3,229.1 189.1,223.2 189.1,223.6 		"/>
		<polygon class="st27" points="186.8,221.9 186.8,222.3 188.4,223.3 188.4,222.9 		"/>
		<polygon class="st27" points="186.8,222.6 186.8,223 188.4,224 188.4,223.6 		"/>
		<polygon class="st27" points="199.3,230.3 199.3,229.9 189.1,223.9 189.1,224.4 		"/>
		<polygon class="st27" points="186.8,224.8 186.8,225.2 188.4,226.2 188.4,225.8 		"/>
		<polygon class="st27" points="186.8,225.5 186.8,225.9 188.4,226.9 188.4,226.5 		"/>
		<polygon class="st27" points="186.8,228.4 186.8,228.8 188.4,229.8 188.4,229.4 		"/>
		<polygon class="st27" points="186.8,229.1 186.8,229.5 188.4,230.5 188.4,230.1 		"/>
		<polygon class="st27" points="195.5,234.2 189.1,230.5 189.1,230.9 195.5,234.6 		"/>
		<polygon class="st27" points="195.9,234.4 195.9,234.8 199.3,236.8 199.3,236.4 		"/>
		<polygon class="st27" points="192.3,231.6 189.1,229.7 189.1,230.1 192.3,232 		"/>
		<polygon class="st27" points="192.7,231.8 192.7,232.2 199.3,236.1 199.3,235.7 		"/>
		<polygon class="st27" points="198.4,233 198.4,233.4 199.3,233.9 199.3,233.5 		"/>
		<polygon class="st27" points="193.7,229.5 189.1,226.8 189.1,227.2 193.7,229.9 		"/>
		<polygon class="st27" points="191.8,222.6 189.1,221.1 189.1,221.5 191.8,223 		"/>
		<polygon class="st27" points="196.3,225.2 192.1,222.8 192.1,223.2 196.3,225.6 		"/>
		<polygon class="st27" points="193.9,224.5 190.9,222.9 190.9,223.3 193.9,224.9 		"/>
		<polygon class="st27" points="196.9,226.3 194.2,224.7 194.2,225.1 196.9,226.7 		"/>
		<polygon class="st27" points="197.2,226.5 197.2,226.9 199.3,228.1 199.3,227.7 		"/>
		<polygon class="st27" points="189.6,222.8 189.6,223.2 191.8,224.5 191.8,224.1 		"/>
		<polygon class="st27" points="198.5,227.9 192.1,224.3 192.1,224.7 198.5,228.3 		"/>
		<polygon class="st27" points="194.8,228 190.7,225.6 190.7,226 194.8,228.4 		"/>
		<polygon class="st27" points="198.5,230.1 195.2,228.2 195.2,228.6 198.5,230.5 		"/>
		<polygon class="st27" points="198.1,232.1 194,229.7 194,230.1 198.1,232.5 		"/>
		<polygon class="st27" points="195.9,231.5 195.9,231.9 198.1,233.2 198.1,232.8 		"/>
		<polygon class="st27" points="189.9,228 189.1,227.6 189.1,228 189.9,228.4 		"/>
		<polygon class="st27" points="191.4,228.9 191.4,229.3 195.5,231.7 195.5,231.3 		"/>
		<polygon class="st27" points="191,228.7 190.2,228.2 190.2,228.6 191,229.1 		"/>
		<polygon class="st27" points="194.8,231.6 190.2,228.9 190.2,229.4 194.8,232 		"/>
		<polygon class="st27" points="186.8,232 186.8,232.4 188.4,233.3 188.4,232.9 		"/>
		<polygon class="st27" points="186.8,232.7 186.8,233.1 188.4,234.1 188.4,233.7 		"/>
		<polygon class="st27" points="186.8,233.4 186.8,233.8 188.4,234.8 188.4,234.4 		"/>
		<polygon class="st27" points="199.3,241.8 199.3,241.4 189.1,235.5 189.1,235.9 		"/>
		<polygon class="st27" points="186.8,234.1 186.8,234.5 188.4,235.5 188.4,235.1 		"/>
		<polygon class="st27" points="186.8,234.9 186.8,235.3 188.4,236.2 188.4,235.8 		"/>
		<polygon class="st27" points="199.3,242.5 199.3,242.1 189.1,236.2 189.1,236.6 		"/>
		<polygon class="st27" points="186.8,237 186.8,237.4 188.4,238.4 188.4,238 		"/>
		<polygon class="st27" points="186.8,237.8 186.8,238.2 188.4,239.1 188.4,238.7 		"/>
		<polygon class="st27" points="198.4,245.2 198.4,245.6 199.3,246.1 199.3,245.7 		"/>
		<polygon class="st27" points="193.7,241.7 189.1,239.1 189.1,239.5 193.7,242.1 		"/>
		<polygon class="st27" points="191.8,234.9 189.1,233.3 189.1,233.7 191.8,235.3 		"/>
		<polygon class="st27" points="196.3,237.4 192.1,235.1 192.1,235.5 196.3,237.8 		"/>
		<polygon class="st27" points="193.9,236.8 190.9,235.1 190.9,235.5 193.9,237.2 		"/>
		<polygon class="st27" points="196.9,238.5 194.2,237 194.2,237.4 196.9,238.9 		"/>
		<polygon class="st27" points="197.2,238.7 197.2,239.1 199.3,240.3 199.3,239.9 		"/>
		<polygon class="st27" points="189.6,235.1 189.6,235.4 191.8,236.7 191.8,236.3 		"/>
		<polygon class="st27" points="198.5,240.2 192.1,236.5 192.1,236.9 198.5,240.6 		"/>
		<polygon class="st27" points="194.8,240.2 190.7,237.9 190.7,238.3 194.8,240.6 		"/>
		<polygon class="st27" points="198.5,242.3 195.2,240.4 195.2,240.8 198.5,242.7 		"/>
		<polygon class="st27" points="198.1,244.3 194,241.9 194,242.3 198.1,244.7 		"/>
		<polygon class="st27" points="195.9,243.7 195.9,244.1 198.1,245.4 198.1,245 		"/>
		<polygon class="st27" points="189.9,240.3 189.1,239.8 189.1,240.2 189.9,240.7 		"/>
		<polygon class="st27" points="191.4,241.1 191.4,241.5 195.5,243.9 195.5,243.5 		"/>
		<polygon class="st27" points="191,240.9 190.2,240.5 190.2,240.9 191,241.3 		"/>
		<polygon class="st27" points="194.8,243.8 190.2,241.2 190.2,241.6 194.8,244.2 		"/>
		<path class="st13" d="M134.7,165.2l-2-1.1c-0.1,0-0.2,0-0.2,0.1c0,0,0,0,0,0.1v2.4c0,0.1,0.1,0.2,0.2,0.3l2,1.1
			c0.1,0,0.2,0,0.2-0.1c0,0,0,0,0-0.1v-2.4C134.9,165.4,134.8,165.3,134.7,165.2z"/>
		<path class="st13" d="M134.7,168.8l-2-1.1c-0.1,0-0.2,0-0.2,0.1c0,0,0,0,0,0.1v2.4c0,0.1,0.1,0.2,0.2,0.3l2,1.1
			c0.1,0,0.2,0,0.2-0.1c0,0,0,0,0-0.1v-2.4C134.9,169,134.8,168.9,134.7,168.8z"/>
		<path class="st13" d="M134.7,172.4l-2-1.1c-0.1,0-0.2,0-0.2,0.1c0,0,0,0,0,0.1v2.4c0,0.1,0.1,0.2,0.2,0.3l2,1.1
			c0.1,0,0.2,0,0.2-0.1c0,0,0,0,0-0.1v-2.4C134.9,172.5,134.8,172.4,134.7,172.4z"/>
		<path class="st13" d="M134.7,175.9l-2-1.1c-0.1,0-0.2,0-0.2,0.1c0,0,0,0,0,0.1v2.4c0,0.1,0.1,0.2,0.2,0.3l2,1.1
			c0.1,0,0.2,0,0.2-0.1c0,0,0,0,0-0.1v-2.4C134.9,176.1,134.8,176,134.7,175.9z"/>
		<path class="st13" d="M134.7,179.5l-2-1.1c-0.1,0-0.2,0-0.2,0.1c0,0,0,0,0,0.1v2.4c0,0.1,0.1,0.2,0.2,0.3l2,1.1
			c0.1,0,0.2,0,0.2-0.1c0,0,0,0,0-0.1v-2.4C134.9,179.7,134.8,179.5,134.7,179.5z"/>
		<path class="st13" d="M134.7,183l-2-1.1c-0.1,0-0.2,0-0.2,0.1c0,0,0,0,0,0.1v2.4c0,0.1,0.1,0.2,0.2,0.3l2,1.1c0.1,0,0.2,0,0.2-0.1
			c0,0,0,0,0-0.1v-2.4C134.9,183.2,134.8,183.1,134.7,183z"/>
		<path class="st13" d="M134.7,186.6l-2-1.1c-0.1,0-0.2,0-0.2,0.1c0,0,0,0,0,0.1v2.4c0,0.1,0.1,0.2,0.2,0.3l2,1.1
			c0.1,0,0.2,0,0.2-0.1c0,0,0,0,0-0.1v-2.4C134.9,186.8,134.9,186.7,134.7,186.6z"/>
		<path class="st13" d="M134.7,190.2l-2-1.1c-0.1,0-0.2,0-0.2,0.1c0,0,0,0,0,0.1v2.4c0,0.1,0.1,0.2,0.2,0.3l2,1.1
			c0.1,0,0.2,0,0.2-0.1c0,0,0,0,0-0.1v-2.4C134.9,190.3,134.8,190.2,134.7,190.2z"/>
		<path class="st13" d="M134.7,193.7l-2-1.1c-0.1,0-0.2,0-0.2,0.1c0,0,0,0,0,0.1v2.4c0,0.1,0.1,0.2,0.2,0.3l2,1.1
			c0.1,0,0.2,0,0.2-0.1c0,0,0,0,0-0.1V194C134.9,193.9,134.8,193.8,134.7,193.7z"/>
		<path class="st13" d="M134.7,197.3l-2-1.1c-0.1,0-0.2,0-0.2,0.1c0,0,0,0,0,0.1v2.4c0,0.1,0.1,0.2,0.2,0.3l2,1.1
			c0.1,0,0.2,0,0.2-0.1c0,0,0,0,0-0.1v-2.4C134.9,197.5,134.8,197.3,134.7,197.3z"/>
		<path class="st13" d="M134.7,200.9l-2-1.1c-0.1,0-0.2,0-0.2,0.1c0,0,0,0,0,0.1v2.4c0,0.1,0.1,0.2,0.2,0.3l2,1.1
			c0.1,0,0.2,0,0.2-0.1c0,0,0,0,0-0.1v-2.4C134.9,201,134.8,200.9,134.7,200.9z"/>
		<path class="st13" d="M134.7,204.4l-2-1.1c-0.1,0-0.2,0-0.2,0.1c0,0,0,0,0,0.1v2.4c0,0.1,0.1,0.2,0.2,0.3l2,1.1
			c0.1,0,0.2,0,0.2-0.1c0,0,0,0,0-0.1v-2.4C134.9,204.6,134.8,204.5,134.7,204.4z"/>
		<g class="st2">
			<polygon class="st4" points="228.1,177.9 228.1,179.3 234.2,182.8 234.2,181.3 			"/>
			<polygon class="st4" points="228.1,180.5 228.1,181.9 234.2,185.4 234.2,184 			"/>
			<polygon class="st4" points="228.1,183.1 228.1,184.5 234.2,188 234.2,186.6 			"/>
			<polygon class="st4" points="273.7,213.4 273.7,212 236.4,190.5 236.4,191.9 			"/>
			<polygon class="st4" points="228.1,185.7 228.1,187.2 234.2,190.6 234.2,189.2 			"/>
			<polygon class="st4" points="228.1,188.4 228.1,189.8 234.2,193.3 234.2,191.8 			"/>
			<polygon class="st4" points="273.7,216.1 273.7,214.6 236.4,193.1 236.4,194.6 			"/>
			<polygon class="st4" points="228.1,196.2 228.1,197.7 234.2,201.1 234.2,199.7 			"/>
			<polygon class="st4" points="228.1,198.9 228.1,200.3 234.2,203.8 234.2,202.3 			"/>
			<polygon class="st4" points="228.1,209.4 228.1,210.8 234.2,214.3 234.2,212.8 			"/>
			<polygon class="st4" points="228.1,212 228.1,213.4 234.2,216.9 234.2,215.5 			"/>
			<polygon class="st4" points="260,230.3 236.4,216.8 236.4,218.2 260,231.8 			"/>
			<polygon class="st4" points="261.2,231 261.2,232.5 273.7,239.7 273.7,238.3 			"/>
			<polygon class="st4" points="248.3,220.9 236.4,214.1 236.4,215.6 248.3,222.4 			"/>
			<polygon class="st4" points="249.5,221.7 249.5,223.1 273.7,237.1 273.7,235.6 			"/>
			<polygon class="st4" points="270.5,225.9 270.5,227.4 273.7,229.2 273.7,227.8 			"/>
			<polygon class="st4" points="253.2,213.3 236.4,203.6 236.4,205.1 253.2,214.7 			"/>
			<polygon class="st4" points="246.3,188.3 236.4,182.6 236.4,184.1 246.3,189.8 			"/>
			<polygon class="st4" points="262.5,197.7 247.6,189.1 247.6,190.5 262.5,199.1 			"/>
			<polygon class="st4" points="253.8,195.3 243.3,189.2 243.3,190.6 253.8,196.7 			"/>
			<polygon class="st4" points="264.9,201.6 255.1,196 255.1,197.4 264.9,203.1 			"/>
			<polygon class="st4" points="266.1,202.4 266.1,203.8 273.7,208.2 273.7,206.8 			"/>
			<polygon class="st4" points="238.4,189 238.4,190.4 246.3,195 246.3,193.6 			"/>
			<polygon class="st4" points="270.6,207.6 247.6,194.3 247.6,195.7 270.6,209 			"/>
			<polygon class="st4" points="257.4,207.9 242.4,199.2 242.4,200.6 257.4,209.3 			"/>
			<polygon class="st4" points="270.6,215.5 258.6,208.6 258.6,210 270.6,216.9 			"/>
			<polygon class="st4" points="269.3,222.6 254.4,214 254.4,215.4 269.3,224 			"/>
			<polygon class="st4" points="261.2,220.5 261.2,222 269.3,226.6 269.3,225.2 			"/>
			<polygon class="st4" points="239.4,207.9 236.4,206.3 236.4,207.7 239.4,209.4 			"/>
			<polygon class="st4" points="244.8,211.1 244.8,212.5 260,221.3 260,219.8 			"/>
			<polygon class="st4" points="243.6,210.4 240.6,208.7 240.6,210.1 243.6,211.8 			"/>
			<polygon class="st4" points="257.1,220.8 240.6,211.3 240.6,212.7 257.1,222.3 			"/>
		</g>
		<g class="st2">
			<polygon class="st4" points="283.6,87.9 283.6,89.3 289.7,92.8 289.7,91.4 			"/>
			<polygon class="st4" points="283.6,90.5 283.6,92 289.7,95.4 289.7,94 			"/>
			<polygon class="st4" points="283.6,93.2 283.6,94.6 289.7,98.1 289.7,96.6 			"/>
			<polygon class="st4" points="329.2,123.5 329.2,122.1 291.9,100.6 291.9,102 			"/>
			<polygon class="st4" points="283.6,95.8 283.6,97.2 289.7,100.7 289.7,99.3 			"/>
			<polygon class="st4" points="283.6,98.4 283.6,99.8 289.7,103.3 289.7,101.9 			"/>
			<polygon class="st4" points="329.2,126.1 329.2,124.7 291.9,103.2 291.9,104.6 			"/>
			<polygon class="st4" points="283.6,106.3 283.6,107.7 289.7,111.2 289.7,109.8 			"/>
			<polygon class="st4" points="283.6,108.9 283.6,110.3 289.7,113.8 289.7,112.4 			"/>
			<polygon class="st4" points="283.6,119.4 283.6,120.8 289.7,124.3 289.7,122.9 			"/>
			<polygon class="st4" points="283.6,122 283.6,123.5 289.7,126.9 289.7,125.5 			"/>
			<polygon class="st4" points="315.4,140.4 291.9,126.8 291.9,128.3 315.4,141.8 			"/>
			<polygon class="st4" points="316.7,141.1 316.7,142.5 329.2,149.7 329.2,148.3 			"/>
			<polygon class="st4" points="303.7,131 291.9,124.2 291.9,125.6 303.7,132.4 			"/>
			<polygon class="st4" points="305,131.7 305,133.1 329.2,147.1 329.2,145.7 			"/>
			<polygon class="st4" points="326,136 326,137.4 329.2,139.2 329.2,137.8 			"/>
			<polygon class="st4" points="308.7,123.3 291.9,113.7 291.9,115.1 308.7,124.8 			"/>
			<polygon class="st4" points="301.8,98.4 291.9,92.7 291.9,94.1 301.8,99.8 			"/>
			<polygon class="st4" points="318,107.7 303,99.1 303,100.6 318,109.2 			"/>
			<polygon class="st4" points="309.3,105.3 298.8,99.3 298.8,100.7 309.3,106.8 			"/>
			<polygon class="st3" points="320.3,111.7 310.5,106.1 310.5,107.5 320.3,113.1 			"/>
			<polygon class="st4" points="321.6,112.4 321.6,113.8 329.2,118.2 329.2,116.8 			"/>
			<polygon class="st4" points="293.9,99.1 293.9,100.5 301.8,105.1 301.8,103.6 			"/>
			<polygon class="st4" points="326.1,117.6 303,104.4 303,105.8 326.1,119.1 			"/>
			<polygon class="st4" points="312.9,117.9 297.8,109.2 297.8,110.7 312.9,119.3 			"/>
			<polygon class="st4" points="326.1,125.5 314.1,118.6 314.1,120.1 326.1,126.9 			"/>
			<polygon class="st4" points="324.8,132.6 309.9,124.1 309.9,125.5 324.8,134.1 			"/>
			<polygon class="st4" points="316.7,130.6 316.7,132 324.8,136.7 324.8,135.3 			"/>
			<polygon class="st4" points="294.8,118 291.9,116.3 291.9,117.8 294.8,119.4 			"/>
			<polygon class="st4" points="300.3,121.1 300.3,122.6 315.4,131.3 315.4,129.9 			"/>
			<polygon class="st4" points="299.1,120.4 296.1,118.7 296.1,120.2 299.1,121.9 			"/>
			<polygon class="st4" points="312.6,130.9 296.1,121.3 296.1,122.8 312.6,132.3 			"/>
		</g>
		<path class="st16" d="M174.5,272.3c-2.5-0.9-5.3-0.4-7.4,1.1c-4,2.6-6.7,6.4-5.1,7.7s4.8,2.8,6.8,2.1S181.1,276.6,174.5,272.3z"/>
		<polygon class="st7" points="259,256.7 227.3,274.6 207.2,262.9 238.8,245 		"/>
		<polygon class="st14" points="233.5,274.1 233.5,274.9 265.1,256.8 265.1,256.2 		"/>
		<polygon class="st3" points="265.1,256.2 233.5,274.1 213.4,262.5 245,244.6 		"/>
		<polygon class="st12" points="233.5,274.1 233.5,274.9 213.4,263.2 213.4,262.5 		"/>
		<polygon class="st23" points="244.8,246.5 257,253.5 256.4,253.8 244.2,246.8 		"/>
		<polygon class="st23" points="243.5,247.2 255.7,254.2 255.1,254.5 243,247.5 		"/>
		<polygon class="st23" points="240.6,248.9 257.3,258.6 256.8,258.9 240,249.2 		"/>
		<polygon class="st23" points="239.4,249.5 256.2,259.2 255.6,259.5 238.9,249.8 		"/>
		<polygon class="st23" points="238.3,250.2 255,259.9 254.5,260.2 237.7,250.5 		"/>
		<polygon class="st23" points="237.1,250.9 253.9,260.5 253.3,260.8 236.6,251.2 		"/>
		<polygon class="st23" points="235.9,251.5 252.7,261.2 252.2,261.5 235.4,251.8 		"/>
		<polygon class="st23" points="234.8,252.2 251.5,261.9 251,262.2 234.2,252.5 		"/>
		<polygon class="st23" points="233.6,252.8 250.4,262.5 249.8,262.8 233.1,253.1 		"/>
		<polygon class="st23" points="232.4,253.5 249.2,263.2 248.7,263.5 231.9,253.8 		"/>
		<polygon class="st23" points="231.3,254.1 248.1,263.8 247.5,264.1 230.8,254.5 		"/>
		<polygon class="st23" points="230.1,254.8 246.9,264.5 246.4,264.8 229.6,255.1 		"/>
		<polygon class="st23" points="229,255.5 245.7,265.1 245.2,265.5 228.4,255.8 		"/>
		<polygon class="st23" points="227.8,256.1 244.6,265.8 244,266.1 227.3,256.4 		"/>
		<polygon class="st23" points="226.6,256.8 243.4,266.5 242.9,266.8 226.1,257.1 		"/>
		<polygon class="st23" points="225.5,257.5 242.3,267.1 241.7,267.4 224.9,257.8 		"/>
		<polygon class="st23" points="224.3,258.1 241.1,267.8 240.6,268.1 223.8,258.4 		"/>
		<path class="st9" d="M210.7,267.1h-3v3.2h3c1.1,0,2,0.9,2,2v5.2c0,1.1-0.9,2-2,2h-4.3v3.2h4.3c2.9,0,5.2-2.3,5.2-5.2v-5.2
			C215.8,269.4,213.5,267.1,210.7,267.1L210.7,267.1z"/>
		<path class="st6" d="M209.6,265.3v18c0,2.8-4.1,5-9.3,5s-9.3-2.3-9.3-5v-18H209.6z"/>
		<ellipse class="st6" cx="200.3" cy="265.3" rx="9.3" ry="5"/>
		<ellipse class="st9" cx="200.3" cy="265.3" rx="7.4" ry="3.9"/>
		<path class="st7" d="M200.3,263.9c-3.3,0-6,1.1-7,2.6c1,1.5,3.8,2.6,7,2.6s6-1.1,7-2.6C206.3,265,203.5,263.9,200.3,263.9z"/>
		<path class="st9" d="M203.8,270v18c1.6-0.3,3.1-1,4.4-2v-18C206.9,269,205.4,269.7,203.8,270z"/>
	</g>
</g>
<g id="Layer_2_1_">
	<g id="Layer_1-2_1_">
		<path class="st3" d="M194,89.7V94c0,0.1-0.1,0.2-0.1,0.3l-3.5,2.1v4c0,0.1-0.1,0.2-0.1,0.3l-7.4,4.3l0,0h-0.3l0,0l-7.4-4.3
			c-0.1-0.1-0.1-0.1-0.1-0.3V87.5l0,0l0,0l0,0l0,0l0,0l0,0l3.6-2.1c0.1,0,0.2,0,0.3,0l3.7,2.1l0,0l0,0l0,0l0,0l0,0l0,0l0,0l0,0l0,0
			l0,0v8.1l3.1-1.8v-4.2l0,0l0,0l0,0l0,0l0,0l0,0l0,0l0,0l0,0l3.6-2.1c0.1,0,0.2,0,0.3,0l3.7,2.1c0,0,0.1,0.1,0.1,0.1l0,0
			C194,89.6,194,89.6,194,89.7L194,89.7z M193.4,93.8v-3.5l-1.3,0.8l-1.8,1v3.5C190.3,95.6,193.4,93.8,193.4,93.8z M189.7,100.2
			v-3.5l-1.8,1l-5,2.8v3.6C182.9,104.2,189.7,100.2,189.7,100.2z M175.5,88.2v12l6.8,3.9v-3.5l-3.5-2.1l0,0l0,0l0,0l0,0l0,0l0,0l0,0
			v-0.1l0,0v-0.1l0,0v-8.2l-1.8-1L175.5,88.2z M178.9,85.9l-3.1,1.8l3.1,1.8l3.1-1.8L178.9,85.9z M180.5,97l1.8-1v-7.7L181,89
			l-1.8,1v7.8L180.5,97z M190,88l-3.1,1.8l3.1,1.8l3.1-1.8L190,88z M189.7,92.1l-1.8-1l-1.3-0.8v3.5l1.8,1.1l1.3,0.8V92.1z
			 M182.6,100l4.5-2.6l2.3-1.3l-3.1-1.8l-3.5,2.1l-3.2,1.8L182.6,100z"/>
	</g>
</g>
</svg>
